<?xml version="1.0" encoding="UTF-8"?>
<svg version="1.1" xmlns="http://www.w3.org/2000/svg" width="243" height="237">
<path d="M0 0 C1.42008865 -0.0099852 1.42008865 -0.0099852 2.86886597 -0.02017212 C4.86047444 -0.03023002 6.85211615 -0.03499129 8.84375 -0.03466797 C11.83912876 -0.03902172 14.83300775 -0.07536214 17.828125 -0.11328125 C32.60444647 -0.20085552 45.68512773 1.6573993 59.3671875 7.5859375 C60.41447021 8.03090576 60.41447021 8.03090576 61.48291016 8.48486328 C73.0921976 13.54464584 83.21330843 19.9424754 92.7421875 28.3359375 C93.60714844 29.068125 94.47210938 29.8003125 95.36328125 30.5546875 C101.17404335 35.57829918 106.42216308 40.95243772 110.7421875 47.3359375 C110.7421875 47.9959375 110.7421875 48.6559375 110.7421875 49.3359375 C111.4021875 49.3359375 112.0621875 49.3359375 112.7421875 49.3359375 C117.87163066 56.79213838 121.89508981 65.1594529 125.7421875 73.3359375 C126.11214844 74.12097656 126.48210937 74.90601562 126.86328125 75.71484375 C132.54250701 88.77485319 134.41718605 102.32477283 134.26367188 116.43774414 C134.24221817 118.77010317 134.26362403 121.09937335 134.2890625 123.43164062 C134.32692295 144.44515585 128.16919871 161.8213314 117.73046875 179.8671875 C116.31618511 182.33454286 114.96525154 184.77208134 113.7421875 187.3359375 C113.0821875 187.3359375 112.4221875 187.3359375 111.7421875 187.3359375 C111.52691406 188.03074219 111.31164062 188.72554687 111.08984375 189.44140625 C109.38410226 193.10504232 106.93533089 195.75558719 104.1796875 198.6484375 C103.63739502 199.22311768 103.09510254 199.79779785 102.53637695 200.38989258 C82.7472625 221.15487655 55.28123413 236.82997171 26.06791687 237.72280884 C22.30011829 237.78669777 18.53438003 237.79887619 14.76611328 237.78198242 C11.87850568 237.77347086 8.99288251 237.80233812 6.10546875 237.83398438 C-18.01859353 237.92464575 -44.48639277 230.30944914 -63.2578125 214.3359375 C-63.2578125 213.6759375 -63.2578125 213.0159375 -63.2578125 212.3359375 C-63.79535156 212.11421875 -64.33289063 211.8925 -64.88671875 211.6640625 C-68.04872982 209.89291956 -70.55998476 207.54031265 -73.1953125 205.0859375 C-73.70771484 204.62058594 -74.22011719 204.15523437 -74.74804688 203.67578125 C-78.24214072 200.45251298 -81.362207 197.11142313 -84.2578125 193.3359375 C-84.2578125 192.6759375 -84.2578125 192.0159375 -84.2578125 191.3359375 C-84.9178125 191.3359375 -85.5778125 191.3359375 -86.2578125 191.3359375 C-86.7528125 189.3559375 -86.7528125 189.3559375 -87.2578125 187.3359375 C-87.9178125 187.3359375 -88.5778125 187.3359375 -89.2578125 187.3359375 C-90.67693801 184.83730626 -92.0931509 182.33709469 -93.5078125 179.8359375 C-93.90355469 179.13984375 -94.29929687 178.44375 -94.70703125 177.7265625 C-104.96182337 159.5705371 -109.80439398 142.56604616 -109.70385742 121.71704102 C-109.69535803 119.03778843 -109.72419104 116.36068363 -109.75585938 113.68164062 C-109.81911542 98.69030262 -107.24726333 85.72426409 -101.1328125 71.9609375 C-100.78605469 71.14367187 -100.43929687 70.32640625 -100.08203125 69.484375 C-97.55252369 63.63064869 -97.55252369 63.63064869 -95.2578125 61.3359375 C-94.615289 59.26719716 -94.615289 59.26719716 -94.2578125 57.3359375 C-93.5978125 57.3359375 -92.9378125 57.3359375 -92.2578125 57.3359375 C-92.03222656 56.47613281 -91.80664062 55.61632813 -91.57421875 54.73046875 C-90.06727956 50.84462259 -87.91800355 48.10120162 -85.1953125 45.0234375 C-84.46320557 44.17857788 -84.46320557 44.17857788 -83.71630859 43.31665039 C-72.22827088 30.19413576 -72.22827088 30.19413576 -65.2578125 25.3359375 C-64.5978125 25.3359375 -63.9378125 25.3359375 -63.2578125 25.3359375 C-62.7628125 23.8509375 -62.7628125 23.8509375 -62.2578125 22.3359375 C-60.1484375 20.92578125 -60.1484375 20.92578125 -57.2578125 19.3359375 C-56.10350975 18.63424293 -54.95266978 17.92683166 -53.8046875 17.21484375 C-37.1229948 7.00151786 -19.84803673 0.05005553 0 0 Z " fill="#161942" transform="translate(109.2578125,-0.3359375)"/>
<path d="M0 0 C7.80789757 6.79043783 10.37338455 23.16395249 12 33 C12.12790863 35.65820606 12.21126548 38.29020022 12.23828125 40.94921875 C12.246353 41.72070755 12.25442474 42.49219635 12.26274109 43.2870636 C12.27654482 44.92353094 12.2872835 46.56002663 12.29516602 48.1965332 C12.30656066 49.83399177 12.32680765 51.47141703 12.35668945 53.10864258 C12.7625522 75.40841978 7.11045818 93.30389139 -4.01171875 112.53125 C-5.42600239 114.99860536 -6.77693596 117.43614384 -8 120 C-8.66 120 -9.32 120 -10 120 C-10.21527344 120.69480469 -10.43054688 121.38960938 -10.65234375 122.10546875 C-12.35808524 125.76910482 -14.80685661 128.41964969 -17.5625 131.3125 C-18.10479248 131.88718018 -18.64708496 132.46186035 -19.20581055 133.05395508 C-38.994925 153.81893905 -66.46095337 169.49403421 -95.67427063 170.38687134 C-99.44206921 170.45076027 -103.20780747 170.46293869 -106.97607422 170.44604492 C-109.86368182 170.43753336 -112.74930499 170.46640062 -115.63671875 170.49804688 C-139.76078103 170.58870825 -166.22858027 162.97351164 -185 147 C-185 146.34 -185 145.68 -185 145 C-185.53753906 144.77828125 -186.07507813 144.5565625 -186.62890625 144.328125 C-189.79091732 142.55698206 -192.30217226 140.20437515 -194.9375 137.75 C-195.44990234 137.28464844 -195.96230469 136.81929687 -196.49023438 136.33984375 C-200.48421068 132.65543867 -204.44243153 128.76901062 -207.125 124 C-206.90213085 120.43409362 -204.45380289 118.3504276 -202 116 C-198.75925755 113.21019574 -195.39347332 110.6007357 -192 108 C-190.99453125 107.22527344 -189.9890625 106.45054687 -188.953125 105.65234375 C-187.33402798 104.4057514 -185.71425072 103.16007308 -184.09301758 101.91625977 C-174.12951342 94.27126143 -164.28719963 86.48646103 -154.5925293 78.50268555 C-150.50670943 75.15563984 -146.32868582 72.02728737 -142 69 C-138.13898934 71.14500592 -135.08861065 73.60324671 -131.875 76.625 C-128.1738329 80.0483315 -124.42689024 83.33823451 -120.5 86.5 C-115.63939459 90.41355336 -111.05318166 94.56193367 -106.5078125 98.8359375 C-104.11878422 100.89749773 -101.75265948 102.47074474 -99 104 C-98.39079712 103.42838135 -98.39079712 103.42838135 -97.76928711 102.84521484 C-95.82554451 101.02161107 -93.88151179 99.1983168 -91.9375 97.375 C-91.21739746 96.69928955 -90.49729492 96.0235791 -89.75537109 95.32739258 C-86.16083393 91.95618929 -82.56227487 88.58963781 -78.94921875 85.23828125 C-72.65610558 79.39740115 -66.4252759 73.53909618 -60.44140625 67.37890625 C-58.45360798 65.44199561 -56.43737851 63.63723697 -54.33374023 61.83154297 C-50.12135841 58.15676737 -46.15475674 54.28325519 -42.21875 50.31640625 C-41.51979614 49.61603745 -40.82084229 48.91566864 -40.10070801 48.19407654 C-37.89808461 45.98591542 -35.69898919 43.77427963 -33.5 41.5625 C-31.99502492 40.05250186 -30.48981865 38.5427341 -28.984375 37.03320312 C-25.32024171 33.35812359 -21.6592652 29.67992644 -18 26 C-13.58282601 27.60624509 -10.22743482 29.58432296 -6 32 C-6 24.41 -6 16.82 -6 9 C-5.67 9 -5.34 9 -5 9 C-4.67 10.32 -4.34 11.64 -4 13 C-3.8453125 11.7315625 -3.8453125 11.7315625 -3.6875 10.4375 C-2.9171146 6.58557299 -1.63725486 3.55924969 0 0 Z " fill="#271167" transform="translate(231,67)"/>
<path d="M0 0 C-0.33 10.56 -0.66 21.12 -1 32 C-5.1386803 30.96532992 -7.55025148 29.43050464 -11 27 C-13.94242388 28.3256907 -16.00260886 29.75992373 -18.26464844 32.0534668 C-18.87918884 32.67138596 -19.49372925 33.28930511 -20.12689209 33.9259491 C-20.78111145 34.59362808 -21.43533081 35.26130707 -22.109375 35.94921875 C-22.79501526 36.64006058 -23.48065552 37.3309024 -24.18707275 38.04267883 C-26.37952077 40.25292138 -28.5651891 42.46970992 -30.75 44.6875 C-32.9213312 46.88661303 -35.09415664 49.08419366 -37.27008057 51.27876282 C-38.62202456 52.64278233 -39.97129021 54.00946394 -41.31732178 55.37931824 C-45.14693254 59.24880925 -49.10188017 62.89418466 -53.22393799 66.45002747 C-55.31053598 68.27100531 -57.27895317 70.18011983 -59.21875 72.15625 C-59.92386719 72.86910156 -60.62898437 73.58195312 -61.35546875 74.31640625 C-62.06316406 75.03699219 -62.77085937 75.75757813 -63.5 76.5 C-68.25123061 81.33777397 -73.039278 86.02508963 -78.20703125 90.41967773 C-80.06404124 92.05644593 -81.78445047 93.77891606 -83.5 95.5625 C-87.01878954 99.15442835 -90.90520154 102.09641564 -95 105 C-95.92039062 104.20078125 -96.84078125 103.4015625 -97.7890625 102.578125 C-99.06761872 101.46864673 -100.34627213 100.35928044 -101.625 99.25 C-102.63856567 98.37069824 -102.63856567 98.37069824 -103.67260742 97.47363281 C-108.7798595 93.04722875 -113.91069298 88.6492836 -119.05444336 84.26538086 C-123.46827291 80.49050327 -127.76425669 76.60644964 -132.01171875 72.64453125 C-133.998153 70.80007831 -133.998153 70.80007831 -137 70 C-138.88785351 71.05316973 -138.88785351 71.05316973 -140.8125 72.75 C-141.61171875 73.40226562 -142.4109375 74.05453125 -143.234375 74.7265625 C-144.14703125 75.47679687 -145.0596875 76.22703125 -146 77 C-147.60571845 78.25821221 -149.21162764 79.51619271 -150.8215332 80.76904297 C-156.65304559 85.31093328 -162.40365499 89.94538897 -168.125 94.625 C-172.76274259 98.41750251 -177.43450406 102.12302716 -182.25 105.6875 C-186.46157851 108.81874218 -190.61218953 112.00663248 -194.6875 115.3125 C-195.68136719 116.11300781 -196.67523438 116.91351563 -197.69921875 117.73828125 C-199.94813449 119.94901506 -200.69704253 120.92110667 -201 124 C-201.66 124 -202.32 124 -203 124 C-203.33 122.68 -203.66 121.36 -204 120 C-204.66 120 -205.32 120 -206 120 C-207.32421875 118.3203125 -207.32421875 118.3203125 -208.6875 116.125 C-209.14511719 115.40570313 -209.60273438 114.68640625 -210.07421875 113.9453125 C-210.37972656 113.30335938 -210.68523437 112.66140625 -211 112 C-210 110 -210 110 -207 108.375 C-203.03726249 106.18949022 -199.96831987 103.38227188 -196.64453125 100.3359375 C-193.5643492 97.61518585 -190.36822613 95.08452296 -187.125 92.5625 C-182.01626117 88.58495763 -176.96612348 84.55015293 -171.96484375 80.4375 C-163.11494726 73.16169577 -154.22769467 65.93023109 -145.25 58.8125 C-144.67789795 58.35504395 -144.1057959 57.89758789 -143.51635742 57.42626953 C-140.79491373 55.28066518 -138.18746796 53.38484652 -135 52 C-134.40574219 52.54527344 -133.81148438 53.09054688 -133.19921875 53.65234375 C-128.72403427 57.72385684 -124.20456389 61.69473933 -119.5 65.5 C-114.99269298 69.14907508 -110.65882598 72.94410483 -106.37109375 76.84765625 C-102.95651889 79.94721267 -99.48125893 82.97577785 -96 86 C-92.97883015 84.63739753 -90.79224738 83.080215 -88.390625 80.8046875 C-87.72224609 80.17498047 -87.05386719 79.54527344 -86.36523438 78.89648438 C-85.66720703 78.22939453 -84.96917969 77.56230469 -84.25 76.875 C-83.53134766 76.19501953 -82.81269531 75.51503906 -82.07226562 74.81445312 C-77.87888191 70.83435686 -73.75595242 66.79518637 -69.703125 62.671875 C-67.94641993 60.94740305 -66.12204695 59.34808886 -64.25 57.75 C-59.92518124 54.05408915 -55.97765052 50.00769486 -52.03613281 45.91113281 C-50.72688667 44.57114116 -49.36712319 43.28088926 -48 42 C-47.34 42 -46.68 42 -46 42 C-46 41.34 -46 40.68 -46 40 C-44.7421875 38.765625 -44.7421875 38.765625 -42.875 37.25 C-38.5650509 33.59236752 -34.55843494 29.68038073 -30.5625 25.6875 C-29.62156494 24.75309082 -29.62156494 24.75309082 -28.66162109 23.79980469 C-28.0733252 23.20973633 -27.4850293 22.61966797 -26.87890625 22.01171875 C-26.3485376 21.48022217 -25.81816895 20.94872559 -25.27172852 20.40112305 C-23.89056415 19.00611595 -23.89056415 19.00611595 -23 17 C-23.763125 16.71125 -24.52625 16.4225 -25.3125 16.125 C-28 15 -28 15 -31 13 C-31 12.34 -31 11.68 -31 11 C-26.69475099 9.26718193 -22.38674344 7.54154583 -18.07470703 5.82568359 C-16.73672586 5.29319921 -15.39913079 4.75974315 -14.06201172 4.22509766 C-12.29349053 3.51965265 -10.52181179 2.82213903 -8.75 2.125 C-7.71359375 1.71507813 -6.6771875 1.30515625 -5.609375 0.8828125 C-3 0 -3 0 0 0 Z " fill="#C1D7F7" transform="translate(226,67)"/>
<path d="M0 0 C2.97 0 5.94 0 9 0 C9 4.29 9 8.58 9 13 C11.97 13 14.94 13 18 13 C18.1390864 22.56190077 18.24566384 32.12345281 18.31087303 41.68614483 C18.34217227 46.12665754 18.38461795 50.56647769 18.45263672 55.0065918 C18.51788167 59.29251205 18.55371664 63.5777667 18.56926346 67.86414528 C18.5803408 69.49848726 18.60197333 71.13279322 18.63438034 72.76685143 C18.67801681 75.05849965 18.68393182 77.34740674 18.68115234 79.6394043 C18.69447601 80.94290329 18.70779968 82.24640228 18.7215271 83.58940125 C17.71566088 88.34404743 15.95849636 89.29101975 12 92 C11.0925 92.53625 10.185 93.0725 9.25 93.625 C6.73102088 94.94768329 6.73102088 94.94768329 5 98 C-1.31077566 95.74043815 -6.09351675 92.51159341 -10 87 C-11.36231928 81.28287142 -11.17227332 75.77630387 -10.9765625 69.93359375 C-10.95788199 68.28740255 -10.94366119 66.64115527 -10.9336853 64.99488831 C-10.89572817 60.68780627 -10.79771346 56.3841643 -10.68664551 52.07843018 C-10.58384756 47.67450494 -10.53857114 43.27001675 -10.48828125 38.86523438 C-10.38143373 30.2419209 -10.21105638 21.6213898 -10 13 C-6.7 13 -3.4 13 0 13 C0 8.71 0 4.42 0 0 Z " fill="#C2C2D2" transform="translate(127,45)"/>
<path d="M0 0 C2.97 0 5.94 0 9 0 C9 3.96 9 7.92 9 12 C11.97 12 14.94 12 18 12 C18.13932512 19.32799584 18.24578329 26.65570389 18.31087303 33.98475838 C18.34212162 37.38842844 18.38446938 40.79118919 18.45263672 44.19433594 C18.530599 48.11121546 18.55947182 52.02773322 18.5859375 55.9453125 C18.61690521 57.16115021 18.64787292 58.37698792 18.67977905 59.62966919 C18.68352838 69.06721954 18.68352838 69.06721954 15.08837891 72.81591797 C12 75 12 75 10 75 C9.731875 75.61875 9.46375 76.2375 9.1875 76.875 C8 79 8 79 5 81 C4.01 81 3.02 81 2 81 C1.91621094 81.74636719 1.83242187 82.49273437 1.74609375 83.26171875 C0.84361495 86.5739577 -0.32274271 87.64220417 -2.9375 89.8125 C-3.64777344 90.41707031 -4.35804688 91.02164063 -5.08984375 91.64453125 C-7 93 -7 93 -9 93 C-9 66.27 -9 39.54 -9 12 C-6.03 12 -3.06 12 0 12 C0 8.04 0 4.08 0 0 Z " fill="#CDCDDA" transform="translate(162,29)"/>
<path d="M0 0 C2.97 0 5.94 0 9 0 C9 4.29 9 8.58 9 13 C11.64 13 14.28 13 17 13 C17.24902822 17.96179143 17.4294546 22.91988068 17.54931641 27.88647461 C17.59931322 29.57168987 17.66734301 31.25647768 17.75439453 32.94018555 C18.45707419 46.89044339 18.45707419 46.89044339 14.91625977 52.0168457 C12.39305108 54.3000619 9.86347289 56.16930469 7 58 C6.01386719 58.82113281 5.02773438 59.64226562 4.01171875 60.48828125 C3.24472656 61.09027344 2.47773437 61.69226563 1.6875 62.3125 C0.51767578 63.23482422 0.51767578 63.23482422 -0.67578125 64.17578125 C-1.44277344 64.77777344 -2.20976563 65.37976563 -3 66 C-3.88042969 66.73605469 -4.76085938 67.47210938 -5.66796875 68.23046875 C-8 70 -8 70 -10 70 C-10 50.86 -10 31.72 -10 12 C-6.7 12 -3.4 12 0 12 C0 8.04 0 4.08 0 0 Z " fill="#D5D6E1" transform="translate(55,75)"/>
<path d="M0 0 C-0.33 10.56 -0.66 21.12 -1 32 C-5.1386803 30.96532992 -7.55025148 29.43050464 -11 27 C-15.2631847 28.63641942 -18.02856068 31.84626436 -21.12109375 35.06640625 C-22.31547918 36.28607766 -23.51014938 37.50547026 -24.70507812 38.72460938 C-26.57633077 40.64553911 -28.44424955 42.56949108 -30.30688477 44.4987793 C-32.11114968 46.36347982 -33.92767302 48.21552242 -35.74609375 50.06640625 C-36.29833115 50.6455629 -36.85056854 51.22471954 -37.41954041 51.82142639 C-40.51647656 54.95805282 -42.58903734 56.5482544 -47 57 C-48.66710346 58.49985609 -48.66710346 58.49985609 -50 60 C-50.66 60 -51.32 60 -52 60 C-51.67 59.01 -51.34 58.02 -51 57 C-51 56.34 -51 55.68 -51 55 C-53.38564077 55.57584432 -55.66682784 56.22227595 -58 57 C-58.12375 57.639375 -58.2475 58.27875 -58.375 58.9375 C-58.684375 59.9584375 -58.684375 59.9584375 -59 61 C-59.763125 61.28875 -60.52625 61.5775 -61.3125 61.875 C-64.93946667 63.39326512 -65.92330465 65.74651061 -68 69 C-71 70 -71 70 -73 70 C-73.99 70.99 -73.99 70.99 -75 72 C-75.99 72.99 -75.99 72.99 -77 74 C-77.66 74 -78.32 74 -79 74 C-79 74.66 -79 75.32 -79 76 C-80.96147874 77.38938077 -82.96166576 78.7260411 -85 80 C-83.64941886 76.98611927 -82.14395225 74.8965323 -79.8046875 72.57421875 C-79.1753833 71.94620361 -78.5460791 71.31818848 -77.89770508 70.67114258 C-77.2302124 70.01654053 -76.56271973 69.36193848 -75.875 68.6875 C-75.19139404 68.01033936 -74.50778809 67.33317871 -73.8034668 66.63549805 C-69.9969696 62.88703916 -66.13699223 59.26240518 -62.04296875 55.828125 C-58.54109385 52.6945161 -55.29181258 49.29480821 -52.03442383 45.90942383 C-50.72575818 44.56999118 -49.36653536 43.28033851 -48 42 C-47.34 42 -46.68 42 -46 42 C-46 41.34 -46 40.68 -46 40 C-44.7421875 38.765625 -44.7421875 38.765625 -42.875 37.25 C-38.5650509 33.59236752 -34.55843494 29.68038073 -30.5625 25.6875 C-29.62156494 24.75309082 -29.62156494 24.75309082 -28.66162109 23.79980469 C-27.77917725 22.91470215 -27.77917725 22.91470215 -26.87890625 22.01171875 C-26.3485376 21.48022217 -25.81816895 20.94872559 -25.27172852 20.40112305 C-23.89056415 19.00611595 -23.89056415 19.00611595 -23 17 C-23.763125 16.71125 -24.52625 16.4225 -25.3125 16.125 C-28 15 -28 15 -31 13 C-31 12.34 -31 11.68 -31 11 C-26.69475099 9.26718193 -22.38674344 7.54154583 -18.07470703 5.82568359 C-16.73672586 5.29319921 -15.39913079 4.75974315 -14.06201172 4.22509766 C-12.29349053 3.51965265 -10.52181179 2.82213903 -8.75 2.125 C-7.71359375 1.71507813 -6.6771875 1.30515625 -5.609375 0.8828125 C-3 0 -3 0 0 0 Z " fill="#C0E1F7" transform="translate(226,67)"/>
<path d="M0 0 C2.97 0 5.94 0 9 0 C9 4.29 9 8.58 9 13 C11.97 13 14.94 13 18 13 C18 28.51 18 44.02 18 60 C14.93706111 58.46853055 13.31133246 57.56395475 10.94140625 55.36328125 C10.11479492 54.62174805 10.11479492 54.62174805 9.27148438 53.86523438 C8.12843814 52.82669522 6.99301122 51.77971015 5.86523438 50.72460938 C2.54355002 47.71113287 2.54355002 47.71113287 -1.73828125 47.0390625 C-4.5904 48.25084353 -6.66181804 49.98656553 -9 52 C-9.33 52 -9.66 52 -10 52 C-10 39.13 -10 26.26 -10 13 C-6.7 13 -3.4 13 0 13 C0 8.71 0 4.42 0 0 Z " fill="#DFDEE7" transform="translate(91,63)"/>
<path d="M0 0 C-0.66 1.65 -1.32 3.3 -2 5 C0.24362573 5.2284549 0.24362573 5.2284549 2.125 3 C2.74375 2.34 3.3625 1.68 4 1 C4.99 1.99 4.99 1.99 6 3 C4.60026042 4.13932292 3.20052083 5.27864583 1.80078125 6.41796875 C-0.5757084 8.50577419 -2.78035935 10.74881543 -5 13 C-7.93437482 15.96144673 -10.87306639 18.91857544 -13.8125 21.875 C-14.58142578 22.65230469 -15.35035156 23.42960937 -16.14257812 24.23046875 C-20.37044906 28.4761788 -24.66464438 32.56099839 -29.23120117 36.44165039 C-31.0801901 38.07064919 -32.79198671 39.78711906 -34.5 41.5625 C-38.02209661 45.15780416 -41.91861384 48.07440998 -46 51 C-46.93199219 50.18917969 -47.86398438 49.37835938 -48.82421875 48.54296875 C-57.16267358 41.29754096 -65.54780187 34.11238932 -74 27 C-72 26.33333333 -70 25.66666667 -68 25 C-67.67 24.34 -67.34 23.68 -67 23 C-68.32 23.33 -69.64 23.66 -71 24 C-71.6875 22.1875 -71.6875 22.1875 -72 20 C-70.5625 18.25 -70.5625 18.25 -69 17 C-65.535 18.98 -65.535 18.98 -62 21 C-62 21.66 -62 22.32 -62 23 C-60.68 23.33 -59.36 23.66 -58 24 C-57.67 25.65 -57.34 27.3 -57 29 C-56.071875 29.103125 -55.14375 29.20625 -54.1875 29.3125 C-51 30 -51 30 -49.5 31.5625 C-47.96144927 33.34787668 -47.96144927 33.34787668 -44.8125 33.1875 C-43.884375 33.125625 -42.95625 33.06375 -42 33 C-41.896875 32.236875 -41.79375 31.47375 -41.6875 30.6875 C-40.93965597 27.76410969 -40.39335648 26.77285665 -38 25 C-36.0625 24.4375 -36.0625 24.4375 -34 24 C-32.6520257 23.36345658 -31.31403276 22.70394612 -30 22 C-30 21.34 -30 20.68 -30 20 C-28.35546875 18.4921875 -28.35546875 18.4921875 -26.1875 16.875 C-25.47980469 16.33617187 -24.77210938 15.79734375 -24.04296875 15.2421875 C-22 14 -22 14 -19 14 C-17.39092892 11.62387135 -17.39092892 11.62387135 -16 9 C-15.34 8.34 -14.68 7.68 -14 7 C-12.68 7 -11.36 7 -10 7 C-9.9175 6.401875 -9.835 5.80375 -9.75 5.1875 C-8.10509656 0.38986496 -4.70509054 -0.39209088 0 0 Z " fill="#A59CF5" transform="translate(177,121)"/>
<path d="M0 0 C0.66 1.32 1.32 2.64 2 4 C2.66 3.67 3.32 3.34 4 3 C4.99 3.33 5.98 3.66 7 4 C8.3938369 24.31019476 8.09670404 44.65495752 8 65 C9.46845587 63.95153459 10.92442099 62.88556239 12.375 61.8125 C13.18710938 61.22082031 13.99921875 60.62914062 14.8359375 60.01953125 C17.23444224 57.78121545 17.84082022 56.01386744 19 53 C20.70996822 51.96756636 22.42692187 50.9411342 24.203125 50.02734375 C26.92647919 48.47029559 28.84875087 46.2615696 31 44 C32.96561064 42.28711072 34.97747627 40.64624024 37 39 C37.33 39.66 37.66 40.32 38 41 C37.67 41.99 37.34 42.98 37 44 C37.39397335 46.63804589 37.39397335 46.63804589 38 49 C37.01 49.33 36.02 49.66 35 50 C35 50.66 35 51.32 35 52 C33.671875 53.3046875 33.671875 53.3046875 31.75 54.875 C27.96968859 58.07888095 24.47329412 61.47311072 21 65 C17.07173664 68.97853925 13.0844849 72.78505027 8.8125 76.3984375 C6.22701443 78.68302604 3.88501883 81.18364948 1.54296875 83.71484375 C0 85 0 85 -3 85 C-3 84.34 -3 83.68 -3 83 C-3.66 82.67 -4.32 82.34 -5 82 C-2.125 77.125 -2.125 77.125 -1 76 C-0.87513046 73.62798453 -0.81399948 71.28359657 -0.79467773 68.90991211 C-0.78477814 68.16849472 -0.77487854 67.42707733 -0.76467896 66.66319275 C-0.73297534 64.20127607 -0.70827174 61.73934007 -0.68359375 59.27734375 C-0.66303186 57.57482895 -0.6420356 55.87231935 -0.62062073 54.16981506 C-0.56532101 49.68012691 -0.51594672 45.19039208 -0.46777344 40.70062256 C-0.41761594 36.12263822 -0.36189992 31.54472197 -0.30664062 26.96679688 C-0.19896249 17.9779227 -0.09753912 8.9889895 0 0 Z " fill="#111032" transform="translate(145,57)"/>
<path d="M0 0 C2 2 2 2 2.125 4.625 C2.08375 5.40875 2.0425 6.1925 2 7 C4.475 7.495 4.475 7.495 7 8 C2.84004594 12.40806265 -1.7494898 16.01684211 -6.5625 19.6875 C-14.86515185 26.08947594 -14.86515185 26.08947594 -23.0625 32.625 C-24.00222656 33.38039062 -24.94195312 34.13578125 -25.91015625 34.9140625 C-28.02764108 37.02758941 -28.67547512 38.07265313 -29 41 C-29.66 41 -30.32 41 -31 41 C-31.33 39.68 -31.66 38.36 -32 37 C-32.66 37 -33.32 37 -34 37 C-35.32421875 35.3203125 -35.32421875 35.3203125 -36.6875 33.125 C-37.14511719 32.40570313 -37.60273437 31.68640625 -38.07421875 30.9453125 C-38.37972656 30.30335938 -38.68523438 29.66140625 -39 29 C-38 27 -38 27 -35 25.375 C-31.04949377 23.19623596 -27.98834629 20.4012295 -24.67578125 17.36328125 C-21.42086566 14.48850178 -18.04384259 11.80101773 -14.625 9.125 C-14.017771 8.64861084 -13.41054199 8.17222168 -12.78491211 7.68139648 C-10.23772814 5.69558323 -7.6885934 3.7923956 -5 2 C-4.505 2.99 -4.505 2.99 -4 4 C-2.68 2.68 -1.36 1.36 0 0 Z " fill="#B1ABD1" transform="translate(54,150)"/>
<path d="M0 0 C3.92024871 2.17556144 7.03652685 4.69684991 10.3125 7.75 C14.30604134 11.45172641 18.3504894 15.04826364 22.5390625 18.52734375 C24 20 24 20 25 23 C22.33829573 23.7393623 20.51314341 24.13195116 17.8125 23.4375 C15.26019613 21.413259 15.01411356 19.04234068 14 16 C11.99863756 14.57944932 11.99863756 14.57944932 10 14 C10 13.34 10 12.68 10 12 C9.34 12 8.68 12 8 12 C6.66666667 10.66666667 5.33333333 9.33333333 4 8 C2.68346638 7.30074222 1.35201196 6.62792187 0 6 C-1.23310435 6.89040537 -2.46126564 7.78765704 -3.6875 8.6875 C-4.37199219 9.18636719 -5.05648437 9.68523437 -5.76171875 10.19921875 C-8.10692615 12.01985085 -8.10692615 12.01985085 -10.42578125 14.42578125 C-13.82090769 17.82090769 -17.53175993 20.72758377 -21.28125 23.71875 C-24.07928986 25.98595524 -24.07928986 25.98595524 -26.66796875 28.76171875 C-29 31 -29 31 -31.8125 31.3125 C-32.534375 31.209375 -33.25625 31.10625 -34 31 C-34 31.66 -34 32.32 -34 33 C-34.66 33 -35.32 33 -36 33 C-36.66 34.32 -37.32 35.64 -38 37 C-38.66 37 -39.32 37 -40 37 C-40 37.66 -40 38.32 -40 39 C-41.3303125 39.5878125 -41.3303125 39.5878125 -42.6875 40.1875 C-46.92555896 42.50643792 -49.65355041 45.54638401 -52.9140625 49.06640625 C-53.60242187 49.78699219 -54.29078125 50.50757813 -55 51.25 C-55.639375 51.93578125 -56.27875 52.6215625 -56.9375 53.328125 C-59.30574262 55.24783682 -61.00566464 55.64650208 -64 56 C-64.495 54.515 -64.495 54.515 -65 53 C-61.07220254 47.17602445 -55.52542017 43.23464579 -50 39 C-48.99453125 38.22527344 -47.9890625 37.45054687 -46.953125 36.65234375 C-45.33402798 35.4057514 -43.71425072 34.16007308 -42.09301758 32.91625977 C-32.12951342 25.27126143 -22.28719963 17.48646103 -12.5925293 9.50268555 C-8.50670943 6.15563984 -4.32868582 3.02728737 0 0 Z " fill="#1D144E" transform="translate(89,136)"/>
<path d="M0 0 C0.66 0.33 1.32 0.66 2 1 C1.01 1.66 0.02 2.32 -1 3 C-0.67 2.01 -0.34 1.02 0 0 Z M-3 3 C-2.34 3.33 -1.68 3.66 -1 4 C-14.10306407 19.03435469 -14.10306407 19.03435469 -20 21 C-20.804375 21.804375 -21.60875 22.60875 -22.4375 23.4375 C-24.64973661 25.64973661 -26.15760017 26.84198526 -29 28 C-29 28.66 -29 29.32 -29 30 C-29.66 30 -30.32 30 -31 30 C-31 30.66 -31 31.32 -31 32 C-32.63183107 33.05589069 -34.30792999 34.0436126 -36 35 C-37.051875 35.721875 -38.10375 36.44375 -39.1875 37.1875 C-42 39 -42 39 -44 39 C-44 39.66 -44 40.32 -44 41 C-44.66 41 -45.32 41 -46 41 C-42.07828362 33.02190656 -37.56857053 27.19425937 -30.9375 21.25 C-29.52954948 19.96397774 -28.12198552 18.67753212 -26.71484375 17.390625 C-26.06112793 16.80216797 -25.40741211 16.21371094 -24.73388672 15.60742188 C-22.85958123 13.91376031 -22.85958123 13.91376031 -20.75390625 11.546875 C-19 10 -19 10 -15 10 C-14.5875 9.195625 -14.175 8.39125 -13.75 7.5625 C-12 5 -12 5 -10.0703125 4.48046875 C-8.05164034 4.26854409 -6.0255547 4.13068095 -4 4 C-3.67 3.67 -3.34 3.34 -3 3 Z " fill="#170E49" transform="translate(186,128)"/>
<path d="M0 0 C0.66 0 1.32 0 2 0 C1 3 1 3 -1 5 C0.98 4.67 2.96 4.34 5 4 C5.495 5.98 5.495 5.98 6 8 C6.99 7.67 7.98 7.34 9 7 C9.33 6.34 9.66 5.68 10 5 C11.32 5.33 12.64 5.66 14 6 C12.45036847 7.65795529 10.88475231 9.30098044 9.3125 10.9375 C8.44238281 11.85402344 7.57226562 12.77054688 6.67578125 13.71484375 C3.89711826 16.08786251 2.53256377 16.5629818 -1 17 C-2.66710346 18.49985609 -2.66710346 18.49985609 -4 20 C-4.66 20 -5.32 20 -6 20 C-5.505 18.515 -5.505 18.515 -5 17 C-5 16.34 -5 15.68 -5 15 C-7.38564077 15.57584432 -9.66682784 16.22227595 -12 17 C-12.12375 17.639375 -12.2475 18.27875 -12.375 18.9375 C-12.684375 19.9584375 -12.684375 19.9584375 -13 21 C-13.763125 21.28875 -14.52625 21.5775 -15.3125 21.875 C-18.93946667 23.39326512 -19.92330465 25.74651061 -22 29 C-25 30 -25 30 -27 30 C-27.66 30.66 -28.32 31.32 -29 32 C-29.66 32.66 -30.32 33.32 -31 34 C-31.66 34 -32.32 34 -33 34 C-33 34.66 -33 35.32 -33 36 C-34.96147874 37.38938077 -36.96166576 38.7260411 -39 40 C-37.64941886 36.98611927 -36.14395225 34.8965323 -33.8046875 32.57421875 C-33.1753833 31.94620361 -32.5460791 31.31818848 -31.89770508 30.67114258 C-31.2302124 30.01654053 -30.56271973 29.36193848 -29.875 28.6875 C-29.19139404 28.01033936 -28.50778809 27.33317871 -27.8034668 26.63549805 C-23.9969696 22.88703916 -20.13699223 19.26240518 -16.04296875 15.828125 C-12.54109385 12.6945161 -9.29181258 9.29480821 -6.03442383 5.90942383 C-4.72575818 4.56999118 -3.36653536 3.28033851 -2 2 C-1.34 2 -0.68 2 0 2 C0 1.34 0 0.68 0 0 Z " fill="#B4C7F3" transform="translate(180,107)"/>
<path d="M0 0 C2.22147837 0.86890091 3.58854508 1.86338468 5.36938477 3.44311523 C5.97459961 3.97227539 6.57981445 4.50143555 7.20336914 5.04663086 C7.82405273 5.60157227 8.44473633 6.15651367 9.08422852 6.72827148 C10.32389874 7.82209816 11.56474177 8.91459743 12.80688477 10.00561523 C13.35223877 10.49151123 13.89759277 10.97740723 14.45947266 11.47802734 C16.19881807 12.98870829 16.19881807 12.98870829 19.02172852 14.79077148 C19.02172852 17.79077148 19.02172852 17.79077148 17.52172852 19.47827148 C17.02672852 19.91139648 16.53172852 20.34452148 16.02172852 20.79077148 C17.34172852 21.45077148 18.66172852 22.11077148 20.02172852 22.79077148 C20.02172852 23.45077148 20.02172852 24.11077148 20.02172852 24.79077148 C15.42830176 24.30682117 13.32245577 22.62943454 10.02172852 19.47827148 C3.1510219 12.48517419 3.1510219 12.48517419 -5.97827148 10.79077148 C-6.63827148 9.80077148 -7.29827148 8.81077148 -7.97827148 7.79077148 C-8.96827148 8.12077148 -9.95827148 8.45077148 -10.97827148 8.79077148 C-10.97827148 7.80077148 -10.97827148 6.81077148 -10.97827148 5.79077148 C-8.16577148 3.72827148 -8.16577148 3.72827148 -4.97827148 1.79077148 C-1.97827148 -0.20922852 -1.97827148 -0.20922852 0 0 Z " fill="#141437" transform="translate(90.978271484375,109.209228515625)"/>
<path d="M0 0 C4.57189739 1.76068776 7.34811326 3.77275125 11 7 C8.37204724 8.40783184 5.95365998 9.50772334 3 10 C2.34 9.67 1.68 9.34 1 9 C0.67 9.66 0.34 10.32 0 11 C0 10.34 0 9.68 0 9 C-1.65 9.33 -3.3 9.66 -5 10 C-5.73080266 11.97746603 -6.39421747 13.98072489 -7 16 C-6.67 16.66 -6.34 17.32 -6 18 C-7.8253125 18.0928125 -7.8253125 18.0928125 -9.6875 18.1875 C-14.20179824 18.73782964 -16.07480578 20.48976694 -19 24 C-19.556875 24.53625 -20.11375 25.0725 -20.6875 25.625 C-22.23918941 27.17108027 -22.23918941 27.17108027 -24 30 C-24.33 29.67 -24.66 29.34 -25 29 C-25.20625 29.78375 -25.4125 30.5675 -25.625 31.375 C-27 34 -27 34 -30.0625 35.1875 C-31.031875 35.455625 -32.00125 35.72375 -33 36 C-33.33 36.66 -33.66 37.32 -34 38 C-34.66 37.67 -35.32 37.34 -36 37 C-29.17554445 28.85635746 -21.59251861 21.48176677 -14.0625 14 C-12.69703255 12.63955682 -11.33179614 11.27888169 -9.96679688 9.91796875 C-6.64719114 6.6092969 -3.32446727 3.30378678 0 0 Z " fill="#0E1233" transform="translate(213,93)"/>
<path d="M0 0 C1.71875 0.8203125 1.71875 0.8203125 2.71875 1.8203125 C3.9253125 2.779375 3.9253125 2.779375 5.15625 3.7578125 C7.71875 5.8203125 7.71875 5.8203125 9.71875 7.8203125 C8.1158051 9.11349506 6.51134858 10.40480406 4.90625 11.6953125 C4.01292969 12.41460937 3.11960937 13.13390625 2.19921875 13.875 C-2.32177196 17.42059587 -4.54331045 18.03683852 -10.28125 17.8203125 C-10.28125 15.5103125 -10.28125 13.2003125 -10.28125 10.8203125 C-11.93125 12.1403125 -13.58125 13.4603125 -15.28125 14.8203125 C-15.94125 14.4903125 -16.60125 14.1603125 -17.28125 13.8203125 C-14.4338517 10.04616665 -11.40389092 6.98076712 -7.78125 3.9453125 C-6.8428125 3.14351562 -5.904375 2.34171875 -4.9375 1.515625 C-2.28125 -0.1796875 -2.28125 -0.1796875 0 0 Z " fill="#BCC4ED" transform="translate(65.28125,140.1796875)"/>
<path d="M0 0 C0.66 0.33 1.32 0.66 2 1 C1.505 1.4125 1.01 1.825 0.5 2.25 C-1.43386092 4.12202338 -1.43386092 4.12202338 -1 8 C-1 8.66 -1 9.32 -1 10 C-0.34 10.33 0.32 10.66 1 11 C-4.94 16.445 -4.94 16.445 -11 22 C-14.80620672 20.09689664 -17.15036368 18.22992819 -20.25 15.375 C-21.14203125 14.55773437 -22.0340625 13.74046875 -22.953125 12.8984375 C-23.62859375 12.27195313 -24.3040625 11.64546875 -25 11 C-22.35261084 9.5393715 -21.10551666 9 -18 9 C-17.67 8.34 -17.34 7.68 -17 7 C-15.02 8.32 -13.04 9.64 -11 11 C-10.75378906 10.40574219 -10.50757813 9.81148437 -10.25390625 9.19921875 C-8.79942335 6.6482098 -7.32467072 5.49781654 -4.9375 3.8125 C-4.22464844 3.30332031 -3.51179688 2.79414063 -2.77734375 2.26953125 C-2.19082031 1.85058594 -1.60429687 1.43164062 -1 1 C-0.67 0.67 -0.34 0.34 0 0 Z " fill="#1F1551" transform="translate(143,132)"/>
<path d="M0 0 C3.44779086 1.50006391 5.82360533 3.50409262 8.5625 6.0625 C13.08610538 10.21751531 17.75988858 14.11979421 22.5546875 17.95703125 C24.83935303 19.86578536 26.93250978 21.86038803 29 24 C29.598125 23.649375 30.19625 23.29875 30.8125 22.9375 C33 22 33 22 36 23 C35.34 23 34.68 23 34 23 C34 23.66 34 24.32 34 25 C31.1875 25.6875 31.1875 25.6875 28 26 C26.5 24.6875 26.5 24.6875 25 23 C21.89992799 21.79950593 21.89992799 21.79950593 19 21 C18.505 18.525 18.505 18.525 18 16 C17.071875 15.731875 16.14375 15.46375 15.1875 15.1875 C12.13580933 14.05059563 11.1500248 13.25240693 9 11 C8.01 11 7.02 11 6 11 C5.67 12.32 5.34 13.64 5 15 C6.32 15 7.64 15 9 15 C8.34 16.32 7.68 17.64 7 19 C0.89580099 17.7542451 -2.54831603 15.30284347 -7 11 C-6 8 -6 8 -4.25 6.8125 C-1.70039426 5.89180904 0.30923081 5.85051282 3 6 C3 5.01 3 4.02 3 3 C2.01 2.67 1.02 2.34 0 2 C0 1.34 0 0.68 0 0 Z " fill="#BECFF7" transform="translate(101,129)"/>
<path d="M0 0 C4.18843046 -0.44088742 6.93713569 0.30127039 10.6875 2 C16.1890048 4.37812384 21.08903215 4.40455293 27 4 C27 4.99 27 5.98 27 7 C30.94678725 10.55210852 34.65003398 10.14245447 39.640625 9.97265625 C42.46823349 10.00542655 44.43565285 10.86029016 47 12 C50.20870233 12.16757757 50.20870233 12.16757757 53 12 C53.33 11.34 53.66 10.68 54 10 C54.66 10 55.32 10 56 10 C56 10.99 56 11.98 56 13 C58.475 13.495 58.475 13.495 61 14 C61 14.33 61 14.66 61 15 C38.39059314 15.81283819 20.16733495 11.69824766 0 1 C0 0.67 0 0.34 0 0 Z " fill="#5F2CBB" transform="translate(60,222)"/>
<path d="M0 0 C3 1 3 1 5 4 C2.70668106 8.53767022 -0.43462792 11.26238151 -4.4375 14.25 C-5.01048828 14.69601563 -5.58347656 15.14203125 -6.17382812 15.6015625 C-9.04351575 17.78107209 -11.40899677 19.4437626 -15 20 C-15.66 20.33 -16.32 20.66 -17 21 C-18.66619446 21.0396713 -20.33391013 21.04384447 -22 21 C-22 20.34 -22 19.68 -22 19 C-20.33784732 17.66104368 -18.67036393 16.32869858 -17 15 C-16.08154297 13.824375 -16.08154297 13.824375 -15.14453125 12.625 C-12.94108498 9.92788544 -10.67901325 7.95030143 -7.9375 5.8125 C-7.08027344 5.13832031 -6.22304688 4.46414062 -5.33984375 3.76953125 C-3.60206474 2.45531774 -1.81284513 1.20856342 0 0 Z " fill="#161636" transform="translate(68,127)"/>
<path d="M0 0 C0.66 0.99 1.32 1.98 2 3 C1.34 3 0.68 3 0 3 C0.33 3.66 0.66 4.32 1 5 C1.66 4.67 2.32 4.34 3 4 C2.4409112 7.24271506 1.5867822 8.93057424 -1 11 C-1.66 11 -2.32 11 -3 11 C-3 11.66 -3 12.32 -3 13 C-3.66 13 -4.32 13 -5 13 C-5 13.66 -5 14.32 -5 15 C-6.63183107 16.05589069 -8.30792999 17.0436126 -10 18 C-11.051875 18.721875 -12.10375 19.44375 -13.1875 20.1875 C-16 22 -16 22 -18 22 C-18 22.66 -18 23.32 -18 24 C-18.66 24 -19.32 24 -20 24 C-14.92091744 13.79708526 -8.46375873 7.43521997 0 0 Z " fill="#1E1056" transform="translate(160,145)"/>
<path d="M0 0 C0.33 0 0.66 0 1 0 C1.0154612 1.23908615 1.0154612 1.23908615 1.03123474 2.50320435 C1.12935068 10.30095913 1.23188472 18.09864075 1.33933926 25.89627266 C1.39442339 29.90477988 1.44781949 33.91329456 1.49731445 37.921875 C1.5451729 41.79282575 1.59752217 45.66369245 1.65294075 49.53454208 C1.67326737 51.00883761 1.69199586 52.48315609 1.70907402 53.95749283 C1.7333341 56.02789826 1.76335697 58.09814799 1.79467773 60.16845703 C1.81022202 61.34538116 1.8257663 62.5223053 1.84178162 63.7348938 C1.9950284 66.89740261 2.41149464 69.89174349 3 73 C4.32 73 5.64 73 7 73 C7 73.66 7 74.32 7 75 C7.99 75.33 8.98 75.66 10 76 C10 77.32 10 78.64 10 80 C10.495 79.505 10.495 79.505 11 79 C12.66617115 78.95936168 14.33388095 78.957279 16 79 C15.67 80.32 15.34 81.64 15 83 C10.46778013 83.44780867 8.29097019 82.36880866 4.74853516 79.56665039 C0.43896637 75.45694204 -0.92644339 72.03367877 -1.13525391 66.18530273 C-1.17019562 63.09647243 -1.07996104 60.02043235 -0.9765625 56.93359375 C-0.95788199 55.28740255 -0.94366119 53.64115527 -0.9336853 51.99488831 C-0.89572817 47.68780627 -0.79771346 43.3841643 -0.68664551 39.07843018 C-0.58384756 34.67450494 -0.53857114 30.27001675 -0.48828125 25.86523438 C-0.38143373 17.2419209 -0.21105638 8.6213898 0 0 Z " fill="#8E8DA8" transform="translate(117,58)"/>
<path d="M0 0 C0.33 0.99 0.66 1.98 1 3 C2.32 2.67 3.64 2.34 5 2 C5.33 2.99 5.66 3.98 6 5 C7.32 4.01 8.64 3.02 10 2 C10 2.66 10 3.32 10 4 C10.99 3.67 11.98 3.34 13 3 C13.33 3.99 13.66 4.98 14 6 C6.6302149 12.43181245 6.6302149 12.43181245 2 12.375 C1.01 12.25125 0.02 12.1275 -1 12 C-1 9.69 -1 7.38 -1 5 C-2.65 6.32 -4.3 7.64 -6 9 C-6.66 8.67 -7.32 8.34 -8 8 C-5.58443874 4.80800833 -3.31996462 2.25283313 0 0 Z " fill="#B9BAE8" transform="translate(56,146)"/>
<path d="M0 0 C0.33 0 0.66 0 1 0 C1.00586624 0.92263641 1.01173248 1.84527283 1.01777649 2.79586792 C1.0756071 11.47794308 1.14762784 20.15975833 1.23571491 28.84158134 C1.2805009 33.30533937 1.31973852 37.76900438 1.34643555 42.23291016 C1.37238692 46.53839118 1.41273037 50.84351583 1.46318626 55.14877701 C1.47991052 56.79382022 1.49139007 58.43892515 1.49761391 60.0840416 C1.50719512 62.38307071 1.53517989 64.68117661 1.56762695 66.97998047 C1.57873001 68.2901413 1.58983307 69.60030212 1.60127258 70.95016479 C1.73285263 71.95661041 1.86443268 72.96305603 2 74 C2.99 74.66 3.98 75.32 5 76 C5.99 75.01 6.98 74.02 8 73 C8.66 73.33 9.32 73.66 10 74 C8.71372289 75.17260611 7.42080217 76.3379283 6.125 77.5 C5.04605469 78.47453125 5.04605469 78.47453125 3.9453125 79.46875 C2 81 2 81 0 81 C0 54.27 0 27.54 0 0 Z " fill="#9697AD" transform="translate(153,41)"/>
<path d="M0 0 C0 0.66 0 1.32 0 2 C-0.99 2 -1.98 2 -3 2 C-3.33 2.66 -3.66 3.32 -4 4 C-4.99 4 -5.98 4 -7 4 C-7 4.99 -7 5.98 -7 7 C-10.875 6.125 -10.875 6.125 -12 5 C-12.66 5.66 -13.32 6.32 -14 7 C-15.33333333 6.66666667 -16.66666667 6.33333333 -18 6 C-18.66 6.66 -19.32 7.32 -20 8 C-20.99 8 -21.98 8 -23 8 C-23 7.34 -23 6.68 -23 6 C-24.32 5.67 -25.64 5.34 -27 5 C-18.01068942 1.33768828 -9.71532028 -0.31339743 0 0 Z " fill="#1C2358" transform="translate(108,0)"/>
<path d="M0 0 C0.33 0 0.66 0 1 0 C1 15.51 1 31.02 1 47 C-2.5874856 45.2062572 -5.16756222 43.3896203 -8.25 40.875 C-9.14203125 40.15054688 -10.0340625 39.42609375 -10.953125 38.6796875 C-11.62859375 38.12539062 -12.3040625 37.57109375 -13 37 C-12.01 36.505 -12.01 36.505 -11 36 C-8.96855359 36.93446535 -6.96466413 37.93224776 -5 39 C-5 39.66 -5 40.32 -5 41 C-3.68 41 -2.36 41 -1 41 C-1.33 39.35 -1.66 37.7 -2 36 C-1.34 36 -0.68 36 0 36 C0 24.12 0 12.24 0 0 Z " fill="#A5A7BC" transform="translate(108,76)"/>
<path d="M0 0 C3.3 0 6.6 0 10 0 C10 0.33 10 0.66 10 1 C7.03 1 4.06 1 1 1 C1 18.16 1 35.32 1 53 C2.485 52.505 2.485 52.505 4 52 C4.99 52.66 5.98 53.32 7 54 C2.25 58 2.25 58 0 58 C0 38.86 0 19.72 0 0 Z " fill="#A1A2B5" transform="translate(45,87)"/>
<path d="M0 0 C7.5995788 5.36440856 14.24336261 11.63475319 21 18 C21.598125 17.649375 22.19625 17.29875 22.8125 16.9375 C25 16 25 16 28 17 C27.34 17 26.68 17 26 17 C26 17.66 26 18.32 26 19 C23.1875 19.6875 23.1875 19.6875 20 20 C18.5 18.6875 18.5 18.6875 17 17 C13.89992799 15.79950593 13.89992799 15.79950593 11 15 C10.67 13.35 10.34 11.7 10 10 C9.071875 9.731875 8.14375 9.46375 7.1875 9.1875 C4.14326355 8.0533727 3.01861393 7.40311183 1 5 C0.443125 4.443125 -0.11375 3.88625 -0.6875 3.3125 C-1.120625 2.879375 -1.55375 2.44625 -2 2 C-1.34 2 -0.68 2 0 2 C0 1.34 0 0.68 0 0 Z " fill="#B2ADF2" transform="translate(109,135)"/>
<path d="M0 0 C-0.165 0.53625 -0.33 1.0725 -0.5 1.625 C-1.09660212 4.45886009 -1.0656368 7.1119806 -1 10 C-0.01 9.67 0.98 9.34 2 9 C2.99 9.66 3.98 10.32 5 11 C2.25 15.875 2.25 15.875 0 17 C-0.33 15.68 -0.66 14.36 -1 13 C-1.66 13 -2.32 13 -3 13 C-4.32421875 11.3203125 -4.32421875 11.3203125 -5.6875 9.125 C-6.14511719 8.40570313 -6.60273438 7.68640625 -7.07421875 6.9453125 C-7.37972656 6.30335938 -7.68523438 5.66140625 -8 5 C-6.45487538 1.90975077 -3.48715062 0 0 0 Z " fill="#A6A0BD" transform="translate(23,174)"/>
<path d="M0 0 C0.66 0.33 1.32 0.66 2 1 C2 1.66 2 2.32 2 3 C2.825 2.484375 3.65 1.96875 4.5 1.4375 C9.07741032 -0.44250781 11.18916051 -0.00872441 16 1 C17.34983497 1.63258816 18.68831448 2.29168982 20 3 C11.08489362 5.641513 2.20604186 5.17875809 -7 5 C-5 3 -5 3 -2.9375 2.5 C-2.298125 2.335 -1.65875 2.17 -1 2 C-0.67 1.34 -0.34 0.68 0 0 Z " fill="#50319A" transform="translate(132,232)"/>
<path d="M0 0 C0.66 0.33 1.32 0.66 2 1 C1.01 2.485 1.01 2.485 0 4 C-0.66 4 -1.32 4 -2 4 C-2.763125 4.804375 -3.52625 5.60875 -4.3125 6.4375 C-7 9 -7 9 -9.625 9.5 C-10.40875 9.665 -11.1925 9.83 -12 10 C-13.05771739 11.63064764 -14.05273046 13.30280873 -15 15 C-16.62332967 16.38576923 -18.28724465 17.72641268 -20 19 C-20.66 19.66 -21.32 20.32 -22 21 C-22.99 20.34 -23.98 19.68 -25 19 C-24.071875 18.236875 -23.14375 17.47375 -22.1875 16.6875 C-20.44038358 15.24047652 -18.82793008 13.82178472 -17.25 12.1875 C-16 11 -16 11 -14 11 C-13.67 10.01 -13.34 9.02 -13 8 C-10.9375 6.625 -10.9375 6.625 -8 5 C-5.91888565 3.63651129 -3.84089228 2.26889199 -1.76953125 0.890625 C-1.18558594 0.59671875 -0.60164063 0.3028125 0 0 Z " fill="#5A5F86" transform="translate(60,14)"/>
<path d="M0 0 C1.32 0.33 2.64 0.66 4 1 C0.66625383 8.67825581 -6.45759716 14.96738243 -13 20 C-13 19.34 -13 18.68 -13 18 C-13.66 17.67 -14.32 17.34 -15 17 C-13.47005208 15.76302083 -11.94010417 14.52604167 -10.41015625 13.2890625 C-8.86733563 12.0333609 -8.86733563 12.0333609 -8 10 C-7.34 10 -6.68 10 -6 10 C-6 9.34 -6 8.68 -6 8 C-5.01 7.34 -4.02 6.68 -3 6 C-0.60661049 3.3478706 -0.60661049 3.3478706 0 0 Z " fill="#4D466B" transform="translate(215,189)"/>
<path d="M0 0 C-1.56391593 3.83870274 -3.8734626 6.30972363 -7 9 C-9.8125 9.8125 -9.8125 9.8125 -12 10 C-12.33 9.01 -12.66 8.02 -13 7 C-9.63865469 2.15570822 -6.33108926 -2.11036309 0 0 Z " fill="#1E1149" transform="translate(37,182)"/>
<path d="M0 0 C0.66 0.66 1.32 1.32 2 2 C1.01 2.495 1.01 2.495 0 3 C0 2.01 0 1.02 0 0 Z M-3 4 C-2.01 4.495 -2.01 4.495 -1 5 C-1.99 5.495 -1.99 5.495 -3 6 C-3 5.34 -3 4.68 -3 4 Z M-7 6 C-6.01 6.33 -5.02 6.66 -4 7 C-4 7.66 -4 8.32 -4 9 C-6.046875 10.69140625 -6.046875 10.69140625 -8.75 12.5625 C-9.63171875 13.18253906 -10.5134375 13.80257812 -11.421875 14.44140625 C-13.71323511 15.82663759 -15.38943105 16.55473941 -18 17 C-17.875 15.25 -17.875 15.25 -17 13 C-11.77777778 9 -11.77777778 9 -9 9 C-9 8.34 -9 7.68 -9 7 C-8.34 6.67 -7.68 6.34 -7 6 Z " fill="#180D4A" transform="translate(82,143)"/>
<path d="M0 0 C0.33 0 0.66 0 1 0 C1 11.22 1 22.44 1 34 C2.32 33.34 3.64 32.68 5 32 C5.99 32.66 6.98 33.32 8 34 C6.8562364 34.83617182 5.70992861 35.66886459 4.5625 36.5 C3.92441406 36.9640625 3.28632812 37.428125 2.62890625 37.90625 C1 39 1 39 0 39 C0 26.13 0 13.26 0 0 Z " fill="#C2C3D3" transform="translate(81,76)"/>
<path d="M0 0 C5.20779483 -0.54818893 8.87055316 0.97138125 13.53515625 3.02734375 C16.01885265 4.00743948 18.37254602 4.55506573 21 5 C21 5.66 21 6.32 21 7 C14.87694862 8.44210863 11.80197526 7.5065861 6.5625 4.5625 C5.92634766 4.22412109 5.29019531 3.88574219 4.63476562 3.53710938 C3.08104605 2.70768013 1.5392055 1.85606297 0 1 C0 0.67 0 0.34 0 0 Z " fill="#6741B6" transform="translate(60,222)"/>
<path d="M0 0 C0.66 0.33 1.32 0.66 2 1 C1.01 1.66 0.02 2.32 -1 3 C-0.67 2.01 -0.34 1.02 0 0 Z M-3 3 C-2.34 3.33 -1.68 3.66 -1 4 C-9.07744875 10.70387244 -9.07744875 10.70387244 -15 11 C-13.54588235 6.39529412 -13.54588235 6.39529412 -11.1875 4.6875 C-8.69449849 3.90398524 -6.59838486 3.92977338 -4 4 C-3.67 3.67 -3.34 3.34 -3 3 Z M-18 10 C-17.01 10.33 -16.02 10.66 -15 11 C-15 11.66 -15 12.32 -15 13 C-15.99 12.67 -16.98 12.34 -18 12 C-18 11.34 -18 10.68 -18 10 Z " fill="#120C3A" transform="translate(186,128)"/>
<path d="M0 0 C1.17487036 0.75827092 2.33972592 1.53207755 3.5 2.3125 C4.1496875 2.74175781 4.799375 3.17101562 5.46875 3.61328125 C5.9740625 4.07089844 6.479375 4.52851563 7 5 C7 5.99 7 6.98 7 8 C3.34745949 8.9392247 0.60112861 9.2652614 -3 8 C-4.3125 5.9375 -4.3125 5.9375 -5 4 C-3.68 4 -2.36 4 -1 4 C-0.67 2.68 -0.34 1.36 0 0 Z " fill="#1B1446" transform="translate(118,133)"/>
<path d="M0 0 C0.66 0.33 1.32 0.66 2 1 C-0.28356246 3.34138543 -2.57813374 5.67166982 -4.875 8 C-5.52597656 8.66773438 -6.17695313 9.33546875 -6.84765625 10.0234375 C-7.47285156 10.65507812 -8.09804687 11.28671875 -8.7421875 11.9375 C-9.3182373 12.52402344 -9.89428711 13.11054688 -10.48779297 13.71484375 C-12 15 -12 15 -14 15 C-14 15.66 -14 16.32 -14 17 C-15.96147874 18.38938077 -17.96166576 19.7260411 -20 21 C-18.62086608 17.89876165 -17.03187407 15.78491785 -14.62890625 13.3984375 C-13.64374023 12.41617188 -13.64374023 12.41617188 -12.63867188 11.4140625 C-11.95353516 10.74117187 -11.26839844 10.06828125 -10.5625 9.375 C-9.88123047 8.694375 -9.19996094 8.01375 -8.49804688 7.3125 C-5.74387876 4.58260957 -3.2382409 2.15882726 0 0 Z " fill="#BDBBF1" transform="translate(161,126)"/>
<path d="M0 0 C1.98 0 3.96 0 6 0 C6.33 1.32 6.66 2.64 7 4 C5.66666667 4.66666667 4.33333333 5.33333333 3 6 C2.360625 6.37125 1.72125 6.7425 1.0625 7.125 C-1.41109822 8.17440531 -3.33953538 8.14780359 -6 8 C-6 7.34 -6 6.68 -6 6 C-4.34997172 4.64613064 -2.6825613 3.31321858 -1 2 C-0.67 1.34 -0.34 0.68 0 0 Z " fill="#0E0D2D" transform="translate(52,140)"/>
<path d="M0 0 C0.8353125 0.9590625 0.8353125 0.9590625 1.6875 1.9375 C4.22066561 4.19680987 5.68341424 4.63149047 9 5 C9 5.33 9 5.66 9 6 C6.03 6 3.06 6 0 6 C0 10.29 0 14.58 0 19 C-3.3 19 -6.6 19 -10 19 C-10 18.67 -10 18.34 -10 18 C-7.03 18 -4.06 18 -1 18 C-1.11470137 16.24929483 -1.24219028 14.49942464 -1.375 12.75 C-1.44460937 11.77546875 -1.51421875 10.8009375 -1.5859375 9.796875 C-1.98465249 7.10366811 -2.63507063 5.33036721 -4 3 C-3.01 2.67 -2.02 2.34 -1 2 C-0.67 1.34 -0.34 0.68 0 0 Z " fill="#37395D" transform="translate(91,57)"/>
<path d="M0 0 C2.97 0 5.94 0 9 0 C9 10.56 9 21.12 9 32 C8.67 32 8.34 32 8 32 C7.67 21.77 7.34 11.54 7 1 C6.01 1.66 5.02 2.32 4 3 C2.67432801 3.68177416 1.34246312 4.35191436 0 5 C0 3.35 0 1.7 0 0 Z " fill="#E7E9F3" transform="translate(135,58)"/>
<path d="M0 0 C0.66 0.33 1.32 0.66 2 1 C1.505 1.4125 1.01 1.825 0.5 2.25 C-1.43386092 4.12202338 -1.43386092 4.12202338 -1 8 C-1 8.66 -1 9.32 -1 10 C-0.34 10.33 0.32 10.66 1 11 C-0.32 11.99 -1.64 12.98 -3 14 C-3.66 12.35 -4.32 10.7 -5 9 C-7.16874252 9.50603992 -8.99967627 9.99983813 -11 11 C-9.5807182 7.57440362 -7.94906975 5.93863545 -4.9375 3.8125 C-4.22464844 3.30332031 -3.51179687 2.79414063 -2.77734375 2.26953125 C-2.19082031 1.85058594 -1.60429687 1.43164062 -1 1 C-0.67 0.67 -0.34 0.34 0 0 Z " fill="#322A5E" transform="translate(143,132)"/>
<path d="M0 0 C0.66 0.33 1.32 0.66 2 1 C0.7260411 3.03833424 -0.61061923 5.03852126 -2 7 C-2.66 7 -3.32 7 -4 7 C-4.33 7.99 -4.66 8.98 -5 10 C-6.65 10 -8.3 10 -10 10 C-10 10.66 -10 11.32 -10 12 C-11.96147874 13.38938077 -13.96166576 14.7260411 -16 16 C-16.66 15.67 -17.32 15.34 -18 15 C-16.67578125 13.89648438 -15.3515625 12.79296875 -14.02734375 11.68945312 C-13.48207031 11.23505859 -12.93679687 10.78066406 -12.375 10.3125 C-6.1875 5.15625 -6.1875 5.15625 0 0 Z " fill="#232154" transform="translate(83,140)"/>
<path d="M0 0 C0.66 0.33 1.32 0.66 2 1 C0.67879172 3.93230193 -0.74638197 5.98664899 -3.0390625 8.234375 C-3.90917969 9.09482422 -3.90917969 9.09482422 -4.796875 9.97265625 C-5.40015625 10.55917969 -6.0034375 11.14570313 -6.625 11.75 C-7.23601562 12.35199219 -7.84703125 12.95398438 -8.4765625 13.57421875 C-9.97988624 15.05405305 -11.48934856 16.52764676 -13 18 C-13.66 17.67 -14.32 17.34 -15 17 C-14.67 16.34 -14.34 15.68 -14 15 C-13.34 15 -12.68 15 -12 15 C-11.6596875 14.1646875 -11.6596875 14.1646875 -11.3125 13.3125 C-9.62449964 10.33840412 -7.53323483 8.27991135 -5 6 C-4.34 6 -3.68 6 -3 6 C-2.690625 5.38125 -2.38125 4.7625 -2.0625 4.125 C-1.375 2.75 -0.6875 1.375 0 0 Z " fill="#1C1052" transform="translate(182,139)"/>
<path d="M0 0 C0.66 0 1.32 0 2 0 C2 0.99 2 1.98 2 3 C4.475 3.495 4.475 3.495 7 4 C7 4.33 7 4.66 7 5 C4.4374282 5.02710123 1.87514635 5.04688771 -0.6875 5.0625 C-1.7693457 5.07506836 -1.7693457 5.07506836 -2.87304688 5.08789062 C-6.71555382 5.10543632 -10.26639526 4.93524221 -14 4 C-10.68629 1.79086 -9.6553979 1.77518447 -5.8125 1.875 C-4.91144531 1.89304688 -4.01039062 1.91109375 -3.08203125 1.9296875 C-2.39496094 1.95289063 -1.70789063 1.97609375 -1 2 C-0.67 1.34 -0.34 0.68 0 0 Z " fill="#4A19AD" transform="translate(114,232)"/>
<path d="M0 0 C-2.62534793 1.53145296 -5.05547613 2.25972635 -8 2.875 C-11.73529576 3.73432593 -13.41673912 5.12971014 -16 8 C-16.99 8 -17.98 8 -19 8 C-19 7.34 -19 6.68 -19 6 C-20.32 5.67 -21.64 5.34 -23 5 C-15.51939302 1.9523453 -8.13953622 -0.18794666 0 0 Z " fill="#505780" transform="translate(104,0)"/>
<path d="M0 0 C1.27617188 0.02320313 2.55234375 0.04640625 3.8671875 0.0703125 C5.78917969 0.09738281 5.78917969 0.09738281 7.75 0.125 C9.23113281 0.15980469 9.23113281 0.15980469 10.7421875 0.1953125 C10.7421875 1.1853125 10.7421875 2.1753125 10.7421875 3.1953125 C11.7321875 3.8553125 12.7221875 4.5153125 13.7421875 5.1953125 C7.24368539 4.67977371 1.07992218 3.72863541 -5.2578125 2.1953125 C-3.2578125 0.1953125 -3.2578125 0.1953125 0 0 Z " fill="#7448C5" transform="translate(91.2578125,231.8046875)"/>
<path d="M0 0 C0 3 0 3 -1 5 C-0.67 5.99 -0.34 6.98 0 8 C-0.66 8 -1.32 8 -2 8 C-2.12375 8.598125 -2.2475 9.19625 -2.375 9.8125 C-3 12 -3 12 -5 15 C-5.99 14.67 -6.98 14.34 -8 14 C-7.67 12.35 -7.34 10.7 -7 9 C-6.34 9 -5.68 9 -5 9 C-4.731875 8.071875 -4.46375 7.14375 -4.1875 6.1875 C-3.08851629 3.23759634 -2.37581439 1.94384814 0 0 Z " fill="#4B4F74" transform="translate(22,48)"/>
<path d="M0 0 C-0.4794463 4.21912747 -1.16625119 6.79663178 -4 10 C-4.99 9.67 -5.98 9.34 -7 9 C-6.6875 5.625 -6.6875 5.625 -6 2 C-3 0 -3 0 0 0 Z " fill="#211C39" transform="translate(231,169)"/>
<path d="M0 0 C1.875 0.3125 1.875 0.3125 4 1 C4.66 1.99 5.32 2.98 6 4 C5.67 4.33 5.34 4.66 5 5 C5.66 5.66 6.32 6.32 7 7 C6.34 7 5.68 7 5 7 C5 8.98 5 10.96 5 13 C3.2925002 11.71937515 1.62626404 10.38232443 0 9 C0 8.34 0 7.68 0 7 C0.66 7 1.32 7 2 7 C1.34 4.69 0.68 2.38 0 0 Z " fill="#1A1B38" transform="translate(89,109)"/>
<path d="M0 0 C0 5.23139183 -3.55579929 9.24269013 -7 13 C-9.25 13.8125 -9.25 13.8125 -11 14 C-9.57442379 10.82096506 -7.8226848 8.46341568 -5.5 5.875 C-4.8915625 5.19179688 -4.283125 4.50859375 -3.65625 3.8046875 C-2.46695076 2.50880012 -1.24373566 1.24373566 0 0 Z " fill="#565A82" transform="translate(34,34)"/>
<path d="M0 0 C6.0546875 -0.1953125 6.0546875 -0.1953125 8 0 C8.66 0.66 9.32 1.32 10 2 C10.99 2 11.98 2 13 2 C12.34 3.32 11.68 4.64 11 6 C6.14922412 4.88059018 3.222107 3.8665284 0 0 Z " fill="#B5BEF0" transform="translate(97,142)"/>
<path d="M0 0 C0.66 0.33 1.32 0.66 2 1 C-0.38095238 5.76190476 -0.38095238 5.76190476 -3.4375 6.9375 C-6.98049583 8.40654705 -7.97598144 10.82903759 -10 14 C-10.99 14.33 -11.98 14.66 -13 15 C-12.164372 10.37590307 -9.3516499 8.22323683 -5.9375 5.25 C-5.36966797 4.74339844 -4.80183594 4.23679687 -4.21679688 3.71484375 C-2.8180135 2.46886864 -1.40989267 1.23339027 0 0 Z " fill="#AFB6F4" transform="translate(168,122)"/>
<path d="M0 0 C0.66 0.33 1.32 0.66 2 1 C2.14285714 9.57142857 2.14285714 9.57142857 1 13 C-0.32 13 -1.64 13 -3 13 C-3 13.66 -3 14.32 -3 15 C-4.98 15 -6.96 15 -9 15 C-9 14.01 -9 13.02 -9 12 C-6.03 12 -3.06 12 0 12 C0 8.04 0 4.08 0 0 Z " fill="#F0F1F9" transform="translate(91,64)"/>
<path d="M0 0 C1.32 0.66 2.64 1.32 4 2 C4 2.99 4 3.98 4 5 C3.01 5.495 3.01 5.495 2 6 C2 5.34 2 4.68 2 4 C1.34 4 0.68 4 0 4 C-0.66 5.32 -1.32 6.64 -2 8 C-2.99 7.67 -3.98 7.34 -5 7 C-3.70700306 4.11562221 -2.34058637 2.12780579 0 0 Z " fill="#CCE1F3" transform="translate(89,119)"/>
<path d="M0 0 C0.33 0.66 0.66 1.32 1 2 C1.66 2 2.32 2 3 2 C3.33 1.34 3.66 0.68 4 0 C4 1.65 4 3.3 4 5 C3.34 5 2.68 5 2 5 C1.95101562 5.71027344 1.90203125 6.42054687 1.8515625 7.15234375 C1.77679688 8.07144531 1.70203125 8.99054688 1.625 9.9375 C1.52058594 11.31228516 1.52058594 11.31228516 1.4140625 12.71484375 C1.27742187 13.46894531 1.14078125 14.22304687 1 15 C0.01 15.495 0.01 15.495 -1 16 C-1.02701408 13.89590361 -1.04640223 11.79170822 -1.0625 9.6875 C-1.07410156 8.51574219 -1.08570313 7.34398438 -1.09765625 6.13671875 C-1 3 -1 3 0 0 Z " fill="#0C132A" transform="translate(227,66)"/>
<path d="M0 0 C1.32 0 2.64 0 4 0 C4 1.32 4 2.64 4 4 C4.33 3.67 4.66 3.34 5 3 C6.66617115 2.95936168 8.33388095 2.957279 10 3 C9.67 4.32 9.34 5.64 9 7 C6.8125 7.3125 6.8125 7.3125 4 7 C1.1875 4.5 1.1875 4.5 -1 2 C-0.67 1.34 -0.34 0.68 0 0 Z " fill="#7B73A2" transform="translate(123,134)"/>
<path d="M0 0 C1.32 0.33 2.64 0.66 4 1 C2.63629701 3.99220268 1.05091917 6.29026529 -1.125 8.75 C-1.93324219 9.67039063 -1.93324219 9.67039063 -2.7578125 10.609375 C-3.16773438 11.06828125 -3.57765625 11.5271875 -4 12 C-4.66 10.68 -5.32 9.36 -6 8 C-5.01 7.34 -4.02 6.68 -3 6 C-0.60661049 3.3478706 -0.60661049 3.3478706 0 0 Z " fill="#514B6D" transform="translate(215,189)"/>
<path d="M0 0 C1.32 0 2.64 0 4 0 C4.25 5.625 4.25 5.625 2 9 C1.01 8.67 0.02 8.34 -1 8 C-1.04241723 5.66705225 -1.04092937 3.33297433 -1 1 C-0.67 0.67 -0.34 0.34 0 0 Z " fill="#0E0B24" transform="translate(232,155)"/>
<path d="M0 0 C1.65 0.33 3.3 0.66 5 1 C5 4 5 4 3.6875 5.38671875 C2.125 6.59114583 0.5625 7.79557292 -1 9 C-0.67 6.03 -0.34 3.06 0 0 Z " fill="#9784ED" transform="translate(144,152)"/>
<path d="M0 0 C0.33 0.66 0.66 1.32 1 2 C1.66 2 2.32 2 3 2 C3.33 1.34 3.66 0.68 4 0 C4.66 0.66 5.32 1.32 6 2 C4.73308493 2.67408308 3.46129251 3.33900497 2.1875 4 C1.47980469 4.37125 0.77210938 4.7425 0.04296875 5.125 C-2 6 -2 6 -5 6 C-4.67 4.35 -4.34 2.7 -4 1 C-2.68 0.67 -1.36 0.34 0 0 Z " fill="#0D1429" transform="translate(199,72)"/>
<path d="M0 0 C0.66 0.33 1.32 0.66 2 1 C-7.41002278 10.59453303 -7.41002278 10.59453303 -12 14 C-12.66 13.67 -13.32 13.34 -14 13 C-13.40832031 12.48050781 -12.81664062 11.96101562 -12.20703125 11.42578125 C-8.0140321 7.7252714 -3.89162293 4.01715916 0 0 Z " fill="#201554" transform="translate(181,134)"/>
<path d="M0 0 C0.66 0.66 1.32 1.32 2 2 C0.69013727 3.16962686 -0.6229626 4.33562944 -1.9375 5.5 C-2.66839844 6.1496875 -3.39929687 6.799375 -4.15234375 7.46875 C-6 9 -6 9 -7 9 C-7 6.36 -7 3.72 -7 1 C-5.515 1.99 -5.515 1.99 -4 3 C-3.34 2.34 -2.68 1.68 -2 1 C-1.34 0.67 -0.68 0.34 0 0 Z " fill="#A4A4BB" transform="translate(63,128)"/>
<path d="M0 0 C3.875 1.75 3.875 1.75 5 4 C6.98 4 8.96 4 11 4 C10.01 4.33 9.02 4.66 8 5 C8.66 6.32 9.32 7.64 10 9 C5.32894208 7.44298069 1.91294315 4.91552627 -2 2 C-1.34 1.34 -0.68 0.68 0 0 Z " fill="#664DA5" transform="translate(50,213)"/>
<path d="M0 0 C1.65 0 3.3 0 5 0 C5 6.27 5 12.54 5 19 C4.67 19 4.34 19 4 19 C3.93941406 18.01257813 3.87882813 17.02515625 3.81640625 16.0078125 C3.73261719 14.72648437 3.64882812 13.44515625 3.5625 12.125 C3.44068359 10.21074219 3.44068359 10.21074219 3.31640625 8.2578125 C3.20793973 5.11699848 3.20793973 5.11699848 2 3 C1.01 2.34 0.02 1.68 -1 1 C-0.67 0.67 -0.34 0.34 0 0 Z " fill="#ECEEF8" transform="translate(174,42)"/>
<path d="M0 0 C-0.33 0.66 -0.66 1.32 -1 2 C-1.804375 2.12375 -2.60875 2.2475 -3.4375 2.375 C-6.15983399 2.72567164 -6.15983399 2.72567164 -7.3125 5.0625 C-7.539375 5.701875 -7.76625 6.34125 -8 7 C-10.31 6.67 -12.62 6.34 -15 6 C-12.6582518 1.3165036 -4.90128247 -0.63242354 0 0 Z " fill="#5E648F" transform="translate(81,6)"/>
<path d="M0 0 C0.33 0 0.66 0 1 0 C1 2.64 1 5.28 1 8 C1.99 7.67 2.98 7.34 4 7 C4.99 7.66 5.98 8.32 7 9 C2.25 13 2.25 13 0 13 C0 8.71 0 4.42 0 0 Z " fill="#8D8DA6" transform="translate(45,132)"/>
<path d="M0 0 C0.66 0.33 1.32 0.66 2 1 C1.67 3.31 1.34 5.62 1 8 C-0.98 6.68 -2.96 5.36 -5 4 C-3.35 2.68 -1.7 1.36 0 0 Z " fill="#4A3088" transform="translate(41,201)"/>
<path d="M0 0 C0.66 0.66 1.32 1.32 2 2 C0.3603125 2.2165625 0.3603125 2.2165625 -1.3125 2.4375 C-4.93122987 2.88288104 -4.93122987 2.88288104 -8 4 C-8.99 3.01 -9.98 2.02 -11 1 C-6.94214651 -1.02892674 -4.3831949 -1.16885197 0 0 Z " fill="#38395F" transform="translate(160,4)"/>
<path d="M0 0 C0.66 0.33 1.32 0.66 2 1 C2 1.66 2 2.32 2 3 C2.99 3.33 3.98 3.66 5 4 C5 4.33 5 4.66 5 5 C1.04 5 -2.92 5 -7 5 C-5 3 -5 3 -2.9375 2.5 C-2.298125 2.335 -1.65875 2.17 -1 2 C-0.67 1.34 -0.34 0.68 0 0 Z " fill="#3A1599" transform="translate(132,232)"/>
<path d="M0 0 C1.67542976 0.28604898 3.34385343 0.61781233 5 1 C2.61042731 4.24299151 0.7952131 6.50902342 -3 8 C-2.67 6.68 -2.34 5.36 -2 4 C-1.34 4 -0.68 4 0 4 C-0.33 3.01 -0.66 2.02 -1 1 C-0.67 0.67 -0.34 0.34 0 0 Z " fill="#8E70EA" transform="translate(138,160)"/>
<path d="M0 0 C0.66 1.32 1.32 2.64 2 4 C1.05125 4.4125 0.1025 4.825 -0.875 5.25 C-4.00716624 7.0040131 -4.86500606 7.70851757 -6 11 C-6.99 10.34 -7.98 9.68 -9 9 C-8.51789063 8.60167969 -8.03578125 8.20335937 -7.5390625 7.79296875 C-6.90742188 7.26316406 -6.27578125 6.73335937 -5.625 6.1875 C-4.99851563 5.66542969 -4.37203125 5.14335937 -3.7265625 4.60546875 C-1.7778952 2.91774261 -1.7778952 2.91774261 0 0 Z " fill="#242559" transform="translate(177,128)"/>
<path d="M0 0 C2.31 0.66 4.62 1.32 7 2 C7 2.99 7 3.98 7 5 C3.14354879 5.22036864 0.50776784 4.60355101 -3 3 C-2.01 2.01 -1.02 1.02 0 0 Z " fill="#100935" transform="translate(108,127)"/>
<path d="M0 0 C1.04449911 3.13349732 0.93423645 3.98968256 0 7 C-4.75 8.125 -4.75 8.125 -7 7 C-4.69 4.69 -2.38 2.38 0 0 Z " fill="#182343" transform="translate(205,101)"/>
<path d="M0 0 C0.66 0.33 1.32 0.66 2 1 C1.690625 1.598125 1.38125 2.19625 1.0625 2.8125 C-0.10209704 5.08956772 -0.10209704 5.08956772 -1 8 C-3 8 -3 8 -7 7 C-4.69 4.69 -2.38 2.38 0 0 Z " fill="#202C49" transform="translate(213,93)"/>
<path d="M0 0 C2.97 0 5.94 0 9 0 C8.67 0.99 8.34 1.98 8 3 C5.6875 3.625 5.6875 3.625 3 4 C2.01 3.34 1.02 2.68 0 2 C0 1.34 0 0.68 0 0 Z " fill="#E9EBF4" transform="translate(99,76)"/>
<path d="M0 0 C1.32 0.66 2.64 1.32 4 2 C1.25 6.875 1.25 6.875 -1 8 C-1.33 6.68 -1.66 5.36 -2 4 C-2.66 4 -3.32 4 -4 4 C-4.33 3.01 -4.66 2.02 -5 1 C-4.34 1 -3.68 1 -3 1 C-3 1.66 -3 2.32 -3 3 C-2.01 3 -1.02 3 0 3 C0 2.01 0 1.02 0 0 Z " fill="#9C95B4" transform="translate(24,183)"/>
<path d="M0 0 C0.33 0.66 0.66 1.32 1 2 C-1.63848309 5.61569905 -3.95293333 8.02835214 -8 10 C-8.99 10 -9.98 10 -11 10 C-5.555 5.05 -5.555 5.05 0 0 Z " fill="#2D1872" transform="translate(144,160)"/>
<path d="M0 0 C3.14737182 0.69941596 6.02588876 1.76078698 9 3 C8.67 4.32 8.34 5.64 8 7 C4.46399535 5.08864614 2.21027154 3.37357234 0 0 Z " fill="#ACAAED" transform="translate(106,149)"/>
<path d="M0 0 C0.99 0 1.98 0 3 0 C2.6875 1.9375 2.6875 1.9375 2 4 C1.01 4.33 0.02 4.66 -1 5 C-1 5.66 -1 6.32 -1 7 C-1.99 7.33 -2.98 7.66 -4 8 C-2.25 2.25 -2.25 2.25 0 0 Z " fill="#1B0D52" transform="translate(50,168)"/>
<path d="M0 0 C1.32 0.66 2.64 1.32 4 2 C3.01 2.495 3.01 2.495 2 3 C2 3.66 2 4.32 2 5 C0.35 4.67 -1.3 4.34 -3 4 C-2.01 2.68 -1.02 1.36 0 0 Z M-5 4 C-4.34 4.33 -3.68 4.66 -3 5 C-4.98 5.99 -4.98 5.99 -7 7 C-6.34 6.01 -5.68 5.02 -5 4 Z " fill="#261B58" transform="translate(53,164)"/>
<path d="M0 0 C2.475 0.99 2.475 0.99 5 2 C4.34 3.65 3.68 5.3 3 7 C1.02 5.68 -0.96 4.36 -3 3 C-2.01 2.01 -1.02 1.02 0 0 Z " fill="#9B8FEB" transform="translate(115,153)"/>
<path d="M0 0 C2.31 1.98 4.62 3.96 7 6 C6.67 6.66 6.34 7.32 6 8 C4 8 4 8 2.5625 6.6875 C2.046875 6.130625 1.53125 5.57375 1 5 C0.443125 4.443125 -0.11375 3.88625 -0.6875 3.3125 C-1.120625 2.879375 -1.55375 2.44625 -2 2 C-1.34 2 -0.68 2 0 2 C0 1.34 0 0.68 0 0 Z " fill="#B7C1EF" transform="translate(109,135)"/>
<path d="M0 0 C0.66 0.33 1.32 0.66 2 1 C-0.25 3.5625 -0.25 3.5625 -3 6 C-5.3125 5.8125 -5.3125 5.8125 -7 5 C-7 4.34 -7 3.68 -7 3 C-4.69631264 1.93347808 -2.35981813 0.93578995 0 0 Z " fill="#BED2E2" transform="translate(202,75)"/>
<path d="M0 0 C0.66 0 1.32 0 2 0 C2.33 2.64 2.66 5.28 3 8 C1.02 8.99 1.02 8.99 -1 10 C-1.02689216 8.52093108 -1.04634621 7.04172517 -1.0625 5.5625 C-1.07410156 4.73878906 -1.08570313 3.91507812 -1.09765625 3.06640625 C-1 1 -1 1 0 0 Z " fill="#17182B" transform="translate(233,73)"/>
<path d="M0 0 C0.99 0 1.98 0 3 0 C3.05447047 1.41623216 3.09300508 2.83308191 3.125 4.25 C3.14820313 5.03890625 3.17140625 5.8278125 3.1953125 6.640625 C3 9 3 9 1 13 C0.67 8.71 0.34 4.42 0 0 Z " fill="#C5DCEB" transform="translate(223,67)"/>
<path d="M0 0 C0 0.99 0 1.98 0 3 C-3.375 3.125 -3.375 3.125 -7 3 C-7.66 2.34 -8.32 1.68 -9 1 C-3.375 -1.125 -3.375 -1.125 0 0 Z " fill="#323A6C" transform="translate(71,12)"/>
<path d="M0 0 C1.32 0.33 2.64 0.66 4 1 C1.69 3.31 -0.62 5.62 -3 8 C-3.66 7.01 -4.32 6.02 -5 5 C-4.34 5 -3.68 5 -3 5 C-2.67 4.34 -2.34 3.68 -2 3 C-1.34 2.01 -0.68 1.02 0 0 Z " fill="#AABCE5" transform="translate(190,112)"/>
<path d="M0 0 C0.99 0.66 1.98 1.32 3 2 C5.15274948 1.69159401 5.15274948 1.69159401 7 1 C6.67 1.99 6.34 2.98 6 4 C3.69 4.33 1.38 4.66 -1 5 C-1.33 4.34 -1.66 3.68 -2 3 C-1.34 3 -0.68 3 0 3 C0 2.01 0 1.02 0 0 Z " fill="#0F162C" transform="translate(214,65)"/>
<path d="M0 0 C0.99 1.32 1.98 2.64 3 4 C1.35 4.33 -0.3 4.66 -2 5 C-2.66 3.68 -3.32 2.36 -4 1 C-2.68 0.67 -1.36 0.34 0 0 Z " fill="#3D1A9F" transform="translate(62,217)"/>
<path d="M0 0 C1.98 0 3.96 0 6 0 C5.67 1.32 5.34 2.64 5 4 C3.02 4 1.04 4 -1 4 C-0.67 2.68 -0.34 1.36 0 0 Z " fill="#9F87F6" transform="translate(129,155)"/>
<path d="M0 0 C3 0 3 0 6 1 C5.67 1.99 5.34 2.98 5 4 C2.69 4 0.38 4 -2 4 C-2 3.34 -2 2.68 -2 2 C-1.34 2 -0.68 2 0 2 C0 1.34 0 0.68 0 0 Z " fill="#101336" transform="translate(67,83)"/>
<path d="M0 0 C2.875 -0.125 2.875 -0.125 6 0 C6.66 0.66 7.32 1.32 8 2 C7.34 3.32 6.68 4.64 6 6 C3.97945196 4.35830472 1.97956942 2.69088222 0 1 C0 0.67 0 0.34 0 0 Z " fill="#9276EB" transform="translate(119,161)"/>
<path d="M0 0 C0.66 0.33 1.32 0.66 2 1 C0.8803014 2.00593243 -0.2459412 3.0045849 -1.375 4 C-2.00148437 4.556875 -2.62796875 5.11375 -3.2734375 5.6875 C-5 7 -5 7 -7 7 C-6.67 5.68 -6.34 4.36 -6 3 C-5.38125 2.87625 -4.7625 2.7525 -4.125 2.625 C-1.80879168 2.12802644 -1.80879168 2.12802644 0 0 Z " fill="#797598" transform="translate(161,114)"/>
<path d="M0 0 C0.99 0.33 1.98 0.66 3 1 C3 1.99 3 2.98 3 4 C3.66 4.33 4.32 4.66 5 5 C4.01 5.66 3.02 6.32 2 7 C1.34 6.67 0.68 6.34 0 6 C-0.6875 3.5 -0.6875 3.5 -1 1 C-0.67 0.67 -0.34 0.34 0 0 Z " fill="#0E0D2E" transform="translate(94,113)"/>
<path d="M0 0 C1.65 0 3.3 0 5 0 C5 0.66 5 1.32 5 2 C5.66 2 6.32 2 7 2 C6.67 2.99 6.34 3.98 6 5 C4.35 4.67 2.7 4.34 1 4 C0.67 2.68 0.34 1.36 0 0 Z " fill="#0F1030" transform="translate(183,18)"/>
<path d="M0 0 C0.99 0 1.98 0 3 0 C3 0.66 3 1.32 3 2 C3.66 2.33 4.32 2.66 5 3 C3.02 3.99 1.04 4.98 -1 6 C-0.67 4.02 -0.34 2.04 0 0 Z " fill="#3D2E69" transform="translate(193,210)"/>
<path d="M0 0 C1.5625 1.25 1.5625 1.25 3 3 C2.6875 5.1875 2.6875 5.1875 2 7 C0.68 7.33 -0.64 7.66 -2 8 C-2.33 7.01 -2.66 6.02 -3 5 C-2.505 4.54625 -2.01 4.0925 -1.5 3.625 C0.22609337 2.12364481 0.22609337 2.12364481 0 0 Z " fill="#404357" transform="translate(228,61)"/>
<path d="M0 0 C2.0625 0.4375 2.0625 0.4375 4 1 C4 2.32 4 3.64 4 5 C2.68 5 1.36 5 0 5 C-0.5625 3.0625 -0.5625 3.0625 -1 1 C-0.67 0.67 -0.34 0.34 0 0 Z " fill="#1C1C31" transform="translate(213,42)"/>
<path d="M0 0 C0.99 0.66 1.98 1.32 3 2 C1.02 3.32 -0.96 4.64 -3 6 C-3.66 5.67 -4.32 5.34 -5 5 C-4.1875 3.0625 -4.1875 3.0625 -3 1 C-2.01 0.67 -1.02 0.34 0 0 Z " fill="#180B43" transform="translate(34,181)"/>
<path d="M0 0 C0.99 0.33 1.98 0.66 3 1 C-0.465 3.97 -0.465 3.97 -4 7 C-4 4 -4 4 -2 1.8125 C-1.34 1.214375 -0.68 0.61625 0 0 Z " fill="#C6CFF8" transform="translate(167,120)"/>
<path d="M0 0 C1.32 0.33 2.64 0.66 4 1 C2.68 2.65 1.36 4.3 0 6 C-0.99 5.67 -1.98 5.34 -3 5 C-2.01 3.35 -1.02 1.7 0 0 Z " fill="#1E2860" transform="translate(75,8)"/>
<path d="M0 0 C0.99 0.33 1.98 0.66 3 1 C3 1.66 3 2.32 3 3 C2.34 3 1.68 3 1 3 C0.67 3.99 0.34 4.98 0 6 C-0.99 5.34 -1.98 4.68 -3 4 C-2.01 2.68 -1.02 1.36 0 0 Z " fill="#403A5B" transform="translate(220,184)"/>
<path d="M0 0 C0.66 0.33 1.32 0.66 2 1 C-0.97 3.475 -0.97 3.475 -4 6 C-3.6875 4.125 -3.6875 4.125 -3 2 C-2.01 1.34 -1.02 0.68 0 0 Z M-6 6 C-5.34 6.33 -4.68 6.66 -4 7 C-4.99 7 -5.98 7 -7 7 C-6.67 6.67 -6.34 6.34 -6 6 Z " fill="#1F0E56" transform="translate(35,183)"/>
<path d="M0 0 C1.65 0.33 3.3 0.66 5 1 C3.71034824 2.37562854 2.37310707 3.70766393 1 5 C0.34 5 -0.32 5 -1 5 C-0.67 3.35 -0.34 1.7 0 0 Z " fill="#ADA6DC" transform="translate(56,157)"/>
<path d="M0 0 C0.99 0.33 1.98 0.66 3 1 C2.67 3.31 2.34 5.62 2 8 C0 6 0 6 -0.125 2.875 C-0.08375 1.92625 -0.0425 0.9775 0 0 Z " fill="#0F0D21" transform="translate(3,143)"/>
<path d="M0 0 C0.66 0.33 1.32 0.66 2 1 C-0.77280706 4.08089673 -3.06326356 5.68775452 -7 7 C-7 6.01 -7 5.02 -7 4 C-1.7265625 0.77734375 -1.7265625 0.77734375 0 0 Z " fill="#3F3E5C" transform="translate(171,106)"/>
<path d="M0 0 C0.66 0 1.32 0 2 0 C2 0.99 2 1.98 2 3 C3.32 3.33 4.64 3.66 6 4 C4.02 4.33 2.04 4.66 0 5 C-0.33 4.01 -0.66 3.02 -1 2 C-0.67 1.34 -0.34 0.68 0 0 Z " fill="#453286" transform="translate(164,225)"/>
<path d="M0 0 C-0.375 2.4375 -0.375 2.4375 -1 5 C-1.99 5.495 -1.99 5.495 -3 6 C-3 5.34 -3 4.68 -3 4 C-3.66 3.67 -4.32 3.34 -5 3 C-2.25 0 -2.25 0 0 0 Z " fill="#40326A" transform="translate(205,203)"/>
<path d="M0 0 C1.98 0.66 3.96 1.32 6 2 C5.67 2.99 5.34 3.98 5 5 C2.525 4.01 2.525 4.01 0 3 C0 2.01 0 1.02 0 0 Z " fill="#2C1476" transform="translate(127,169)"/>
<path d="M0 0 C0 0.66 0 1.32 0 2 C-2.97 2 -5.94 2 -9 2 C-9 1.34 -9 0.68 -9 0 C-5.62182575 -0.84454356 -3.32534757 -1.10844919 0 0 Z " fill="#121336" transform="translate(90,73)"/>
<path d="M0 0 C2.1875 0.3125 2.1875 0.3125 4 1 C2.68 2.32 1.36 3.64 0 5 C-0.99 4.34 -1.98 3.68 -3 3 C-1.75 1.4375 -1.75 1.4375 0 0 Z " fill="#434C77" transform="translate(38,30)"/>
</svg>
