<?xml version="1.0" encoding="UTF-8"?>
<svg version="1.1" xmlns="http://www.w3.org/2000/svg" width="306" height="299">
<path d="M0 0 C2.77735474 0.01609919 5.553255 0.0000434 8.33056641 -0.01904297 C23.34617946 -0.03826943 37.53059179 1.58321473 51.77978516 6.57861328 C52.65578369 6.87977051 53.53178223 7.18092773 54.43432617 7.49121094 C68.47686844 12.44830092 80.99000725 19.01958723 93.27978516 27.39111328 C93.84906738 27.74882812 94.41834961 28.10654297 95.00488281 28.47509766 C96.46238588 29.39760033 97.8757388 30.38912517 99.27978516 31.39111328 C99.27978516 32.05111328 99.27978516 32.71111328 99.27978516 33.39111328 C100.01044189 33.63498779 100.74109863 33.8788623 101.49389648 34.13012695 C104.61988072 35.5450519 106.4277874 37.15152203 108.85400391 39.56689453 C110.10213867 40.80922852 110.10213867 40.80922852 111.37548828 42.07666016 C112.23078125 42.94355469 113.08607422 43.81044922 113.96728516 44.70361328 C114.83417969 45.55890625 115.70107422 46.41419922 116.59423828 47.29541016 C117.42246094 48.1275 118.25068359 48.95958984 119.10400391 49.81689453 C119.85770264 50.57397705 120.61140137 51.33105957 121.38793945 52.11108398 C123.33956804 54.46316288 124.31744427 56.50790564 125.27978516 59.39111328 C125.93978516 59.39111328 126.59978516 59.39111328 127.27978516 59.39111328 C128.90613824 61.50322022 130.3859152 63.60210075 131.84228516 65.82861328 C132.50502441 66.83819092 132.50502441 66.83819092 133.18115234 67.86816406 C149.64432997 93.38550183 157.12276524 119.35528505 156.84228516 149.70361328 C156.83802521 150.69213287 156.83376526 151.68065247 156.82937622 152.6991272 C156.74299331 167.10234816 156.11704712 180.69408766 151.27978516 194.39111328 C151.02277832 195.1676123 150.76577148 195.94411133 150.50097656 196.74414062 C143.12617015 218.7870703 130.38224518 237.79395403 114.27978516 254.39111328 C113.38904297 255.32826172 112.49830078 256.26541016 111.58056641 257.23095703 C109.27978516 259.39111328 109.27978516 259.39111328 107.27978516 259.39111328 C107.27978516 260.05111328 107.27978516 260.71111328 107.27978516 261.39111328 C106.61978516 261.39111328 105.95978516 261.39111328 105.27978516 261.39111328 C105.27978516 262.05111328 105.27978516 262.71111328 105.27978516 263.39111328 C103.88134766 264.66870117 103.88134766 264.66870117 101.90478516 266.11376953 C101.17493408 266.64800537 100.44508301 267.18224121 99.69311523 267.73266602 C98.89671631 268.30057861 98.10031738 268.86849121 97.27978516 269.45361328 C96.46469482 270.0363501 95.64960449 270.61908691 94.80981445 271.21948242 C80.05490026 281.60871575 64.72231629 289.13219112 47.34228516 294.07861328 C46.67600098 294.26907227 46.0097168 294.45953125 45.32324219 294.65576172 C31.55898289 298.37513006 18.37929376 299.942952 4.15478516 299.82861328 C2.94488419 299.82405121 2.94488419 299.82405121 1.71054077 299.81939697 C-11.41844531 299.74643204 -23.99841892 298.87152966 -36.72021484 295.39111328 C-37.90236572 295.06965332 -37.90236572 295.06965332 -39.10839844 294.74169922 C-49.63840823 291.76530888 -59.33940333 287.49307163 -68.96728516 282.32861328 C-70.56006057 281.47676682 -72.16680496 280.65116949 -73.77490234 279.82861328 C-80.5716772 276.28581845 -86.61468424 272.00704154 -92.72021484 267.39111328 C-93.53490234 266.80587891 -94.34958984 266.22064453 -95.18896484 265.61767578 C-96.28724609 264.82490234 -96.28724609 264.82490234 -97.40771484 264.01611328 C-98.05095703 263.55462891 -98.69419922 263.09314453 -99.35693359 262.61767578 C-99.80681641 262.21291016 -100.25669922 261.80814453 -100.72021484 261.39111328 C-100.72021484 260.73111328 -100.72021484 260.07111328 -100.72021484 259.39111328 C-101.30287109 259.13330078 -101.88552734 258.87548828 -102.48583984 258.60986328 C-104.90050515 257.29277312 -106.53761662 255.84022944 -108.47021484 253.89111328 C-109.08380859 253.28267578 -109.69740234 252.67423828 -110.32958984 252.04736328 C-111.72021484 250.39111328 -111.72021484 250.39111328 -111.72021484 248.39111328 C-112.38021484 248.39111328 -113.04021484 248.39111328 -113.72021484 248.39111328 C-115.52185982 246.36805403 -117.19281042 244.3442535 -118.84521484 242.20361328 C-119.58336426 241.25228516 -119.58336426 241.25228516 -120.33642578 240.28173828 C-140.27482589 214.1815034 -150.52271593 185.00193682 -150.24169922 152.29321289 C-150.22020294 149.32697102 -150.24166063 146.36314317 -150.26708984 143.39697266 C-150.29516678 126.32831865 -147.51654178 111.29953197 -140.90771484 95.51611328 C-140.46758057 94.44458008 -140.02744629 93.37304688 -139.57397461 92.26904297 C-136.49033082 84.89890365 -133.20433307 78.02325282 -128.72021484 71.39111328 C-128.02283203 70.32119141 -127.32544922 69.25126953 -126.60693359 68.14892578 C-122.36292866 61.74547943 -117.74136922 55.90834474 -112.47021484 50.31689453 C-110.66353227 48.50320743 -110.66353227 48.50320743 -109.72021484 46.39111328 C-109.06021484 46.39111328 -108.40021484 46.39111328 -107.72021484 46.39111328 C-107.39021484 45.40111328 -107.06021484 44.41111328 -106.72021484 43.39111328 C-106.06021484 43.39111328 -105.40021484 43.39111328 -104.72021484 43.39111328 C-104.72021484 42.73111328 -104.72021484 42.07111328 -104.72021484 41.39111328 C-76.57412132 14.25875618 -38.71825491 -0.2660814 0 0 Z " fill="#1C1C1C" transform="translate(149.72021484375,-0.39111328125)"/>
<path d="M0 0 C0.66 0 1.32 0 2 0 C5.78221391 6.60262772 9.07577829 13.2335689 11.91015625 20.296875 C12.75414366 22.39020578 13.67452384 24.45282058 14.625 26.5 C16.61315992 31.5607707 17.80844601 36.70216764 19 42 C19.28230469 43.12792969 19.56460937 44.25585938 19.85546875 45.41796875 C24.0827733 64.25229745 23.05684577 84.22108607 19 103 C18.73316406 104.27617187 18.46632813 105.55234375 18.19140625 106.8671875 C14.12104022 123.98081534 5.87231403 140.55131701 -4.39453125 154.76171875 C-5.77176533 156.68180422 -7.05366212 158.62677036 -8.3125 160.625 C-8.869375 161.40875 -9.42625 162.1925 -10 163 C-10.66 163 -11.32 163 -12 163 C-12.27368408 163.59675537 -12.54736816 164.19351074 -12.8293457 164.80834961 C-23.79155913 185.33135064 -55.18384819 201.72341828 -76.48046875 208.4765625 C-80.00113416 209.53912772 -83.5377513 210.53385691 -87.09106445 211.48120117 C-88.9591482 211.98889755 -90.81392947 212.54475837 -92.66796875 213.1015625 C-95.62001689 213.89754265 -98.27434552 214.3404265 -101.3125 214.5625 C-104.78898078 214.79293818 -104.78898078 214.79293818 -108 216 C-110.53018076 216.09871877 -113.03220161 216.13985668 -115.5625 216.1328125 C-116.30959229 216.13376923 -117.05668457 216.13472595 -117.82641602 216.13571167 C-119.40673914 216.13639249 -120.98706506 216.13454503 -122.56738281 216.13037109 C-124.9902981 216.12502142 -127.413028 216.13031935 -129.8359375 216.13671875 C-131.36979208 216.13605795 -132.90364654 216.13477675 -134.4375 216.1328125 C-135.16461182 216.13483673 -135.89172363 216.13686096 -136.64086914 216.13894653 C-141.77007639 216.1149618 -141.77007639 216.1149618 -144 215 C-145.48905748 214.8378718 -146.98231063 214.71324554 -148.4765625 214.609375 C-153.99153843 214.09847238 -159.07680039 212.82348492 -164.375 211.25 C-165.29764648 210.97905518 -166.22029297 210.70811035 -167.17089844 210.42895508 C-196.36528938 201.6814277 -220.24898391 184.97129045 -240 162 C-240.7528125 161.15179688 -241.505625 160.30359375 -242.28125 159.4296875 C-244 157 -244 157 -244 153 C-242.3828125 151.359375 -242.3828125 151.359375 -240.125 149.75 C-239.30386719 149.14671875 -238.48273438 148.5434375 -237.63671875 147.921875 C-236.76660156 147.28765625 -235.89648438 146.6534375 -235 146 C-230.21020384 142.26234032 -225.4834391 138.46931504 -220.9375 134.4375 C-217.42466732 131.32288317 -213.77406899 128.43135626 -210.046875 125.578125 C-208.35719265 124.27539281 -206.70441675 122.92494155 -205.0625 121.5625 C-203 120 -203 120 -201 120 C-201 119.34 -201 118.68 -201 118 C-199.01544672 116.29371228 -197.02205372 114.70158336 -194.9375 113.125 C-193.65530935 112.14315426 -192.37409358 111.16003439 -191.09375 110.17578125 C-190.4234375 109.66096191 -189.753125 109.14614258 -189.0625 108.61572266 C-186.9774042 106.98229888 -184.93835454 105.30424196 -182.90625 103.60546875 C-182.24246338 103.05552246 -181.57867676 102.50557617 -180.89477539 101.93896484 C-179.61029258 100.87157998 -178.33312395 99.79531857 -177.06420898 98.70947266 C-174.58143801 96.66531664 -172.54985265 95.12923183 -169.390625 94.38671875 C-165.97383126 95.26324917 -164.31952267 97.04111809 -161.8125 99.5 C-156.23610026 104.82664013 -150.37035516 109.60800844 -144.28125 114.33398438 C-143.03921884 115.29840052 -141.79810671 116.2640013 -140.55786133 117.23071289 C-139.34419681 118.17601196 -138.12802674 119.11810625 -136.90893555 120.05639648 C-134.16822038 122.18893353 -131.73948803 124.27076535 -129.3203125 126.78515625 C-127.05612256 129.34395575 -127.05612256 129.34395575 -123.1875 129.75 C-119.64286656 129.50801179 -117.93004484 128.41877984 -115.33203125 126.046875 C-114.29042847 125.09603027 -114.29042847 125.09603027 -113.2277832 124.12597656 C-109.2436558 120.32391832 -105.3628142 116.42481764 -101.5 112.5 C-96.44932048 107.36825018 -91.37649047 102.38194605 -85.91113281 97.69287109 C-81.98997103 94.21952722 -78.40030805 90.39921807 -74.76171875 86.63476562 C-74.17261719 86.03470703 -73.58351562 85.43464844 -72.9765625 84.81640625 C-72.45143066 84.27443604 -71.92629883 83.73246582 -71.38525391 83.17407227 C-70 82 -70 82 -68 82 C-67.67 81.01 -67.34 80.02 -67 79 C-66.34 79 -65.68 79 -65 79 C-65 78.34 -65 77.68 -65 77 C-63.6015625 75.625 -63.6015625 75.625 -61.625 74 C-57.17078591 70.23777988 -53.14316468 66.13941718 -49.1015625 61.94140625 C-47 60 -47 60 -45 60 C-44.62875 59.13375 -44.62875 59.13375 -44.25 58.25 C-42.81700012 55.67060021 -41.21575324 53.93878408 -39 52 C-38.34 52 -37.68 52 -37 52 C-37 51.34 -37 50.68 -37 50 C-35.56640625 48.58984375 -35.56640625 48.58984375 -33.5625 46.9375 C-30.23541403 44.1570907 -27.35068336 41.20850608 -24.4375 38 C-20.48990313 34.07257824 -20.48990313 34.07257824 -16.625 33.5 C-11.32566336 35.69282896 -6.70391314 38.74213611 -2 42 C-2.01160156 41.31647461 -2.02320313 40.63294922 -2.03515625 39.92871094 C-2.11497862 31.3335522 -1.61505329 22.81946736 -1 14.25 C-0.90326834 12.85940121 -0.80691202 11.46877625 -0.7109375 10.078125 C-0.4776285 6.71847536 -0.24057809 3.35913559 0 0 Z " fill="#0A0A0A" transform="translate(278,76)"/>
<path d="M0 0 C2.77735474 0.01609919 5.553255 0.0000434 8.33056641 -0.01904297 C23.34617946 -0.03826943 37.53059179 1.58321473 51.77978516 6.57861328 C52.65578369 6.87977051 53.53178223 7.18092773 54.43432617 7.49121094 C68.47686844 12.44830092 80.99000725 19.01958723 93.27978516 27.39111328 C93.84906738 27.74882812 94.41834961 28.10654297 95.00488281 28.47509766 C96.46238588 29.39760033 97.8757388 30.38912517 99.27978516 31.39111328 C99.27978516 32.05111328 99.27978516 32.71111328 99.27978516 33.39111328 C100.01044189 33.63498779 100.74109863 33.8788623 101.49389648 34.13012695 C104.61988072 35.5450519 106.4277874 37.15152203 108.85400391 39.56689453 C110.10213867 40.80922852 110.10213867 40.80922852 111.37548828 42.07666016 C112.23078125 42.94355469 113.08607422 43.81044922 113.96728516 44.70361328 C114.83417969 45.55890625 115.70107422 46.41419922 116.59423828 47.29541016 C117.42246094 48.1275 118.25068359 48.95958984 119.10400391 49.81689453 C119.85770264 50.57397705 120.61140137 51.33105957 121.38793945 52.11108398 C123.33956804 54.46316288 124.31744427 56.50790564 125.27978516 59.39111328 C125.93978516 59.39111328 126.59978516 59.39111328 127.27978516 59.39111328 C128.90613824 61.50322022 130.3859152 63.60210075 131.84228516 65.82861328 C132.50502441 66.83819092 132.50502441 66.83819092 133.18115234 67.86816406 C149.64432997 93.38550183 157.12276524 119.35528505 156.84228516 149.70361328 C156.83802521 150.69213287 156.83376526 151.68065247 156.82937622 152.6991272 C156.74299331 167.10234816 156.11704712 180.69408766 151.27978516 194.39111328 C151.02277832 195.1676123 150.76577148 195.94411133 150.50097656 196.74414062 C143.12617015 218.7870703 130.38224518 237.79395403 114.27978516 254.39111328 C113.38904297 255.32826172 112.49830078 256.26541016 111.58056641 257.23095703 C109.27978516 259.39111328 109.27978516 259.39111328 107.27978516 259.39111328 C107.27978516 260.05111328 107.27978516 260.71111328 107.27978516 261.39111328 C106.61978516 261.39111328 105.95978516 261.39111328 105.27978516 261.39111328 C105.27978516 262.05111328 105.27978516 262.71111328 105.27978516 263.39111328 C103.88134766 264.66870117 103.88134766 264.66870117 101.90478516 266.11376953 C101.17493408 266.64800537 100.44508301 267.18224121 99.69311523 267.73266602 C98.89671631 268.30057861 98.10031738 268.86849121 97.27978516 269.45361328 C96.46469482 270.0363501 95.64960449 270.61908691 94.80981445 271.21948242 C80.05490026 281.60871575 64.72231629 289.13219112 47.34228516 294.07861328 C46.67600098 294.26907227 46.0097168 294.45953125 45.32324219 294.65576172 C31.55898289 298.37513006 18.37929376 299.942952 4.15478516 299.82861328 C2.94488419 299.82405121 2.94488419 299.82405121 1.71054077 299.81939697 C-11.41844531 299.74643204 -23.99841892 298.87152966 -36.72021484 295.39111328 C-37.90236572 295.06965332 -37.90236572 295.06965332 -39.10839844 294.74169922 C-49.63840823 291.76530888 -59.33940333 287.49307163 -68.96728516 282.32861328 C-70.56006057 281.47676682 -72.16680496 280.65116949 -73.77490234 279.82861328 C-80.5716772 276.28581845 -86.61468424 272.00704154 -92.72021484 267.39111328 C-93.53490234 266.80587891 -94.34958984 266.22064453 -95.18896484 265.61767578 C-96.28724609 264.82490234 -96.28724609 264.82490234 -97.40771484 264.01611328 C-98.05095703 263.55462891 -98.69419922 263.09314453 -99.35693359 262.61767578 C-99.80681641 262.21291016 -100.25669922 261.80814453 -100.72021484 261.39111328 C-100.72021484 260.73111328 -100.72021484 260.07111328 -100.72021484 259.39111328 C-101.30287109 259.13330078 -101.88552734 258.87548828 -102.48583984 258.60986328 C-104.90050515 257.29277312 -106.53761662 255.84022944 -108.47021484 253.89111328 C-109.08380859 253.28267578 -109.69740234 252.67423828 -110.32958984 252.04736328 C-111.72021484 250.39111328 -111.72021484 250.39111328 -111.72021484 248.39111328 C-112.38021484 248.39111328 -113.04021484 248.39111328 -113.72021484 248.39111328 C-115.52185982 246.36805403 -117.19281042 244.3442535 -118.84521484 242.20361328 C-119.58336426 241.25228516 -119.58336426 241.25228516 -120.33642578 240.28173828 C-140.27482589 214.1815034 -150.52271593 185.00193682 -150.24169922 152.29321289 C-150.22020294 149.32697102 -150.24166063 146.36314317 -150.26708984 143.39697266 C-150.29516678 126.32831865 -147.51654178 111.29953197 -140.90771484 95.51611328 C-140.46758057 94.44458008 -140.02744629 93.37304688 -139.57397461 92.26904297 C-136.49033082 84.89890365 -133.20433307 78.02325282 -128.72021484 71.39111328 C-128.02283203 70.32119141 -127.32544922 69.25126953 -126.60693359 68.14892578 C-122.36292866 61.74547943 -117.74136922 55.90834474 -112.47021484 50.31689453 C-110.66353227 48.50320743 -110.66353227 48.50320743 -109.72021484 46.39111328 C-109.06021484 46.39111328 -108.40021484 46.39111328 -107.72021484 46.39111328 C-107.39021484 45.40111328 -107.06021484 44.41111328 -106.72021484 43.39111328 C-106.06021484 43.39111328 -105.40021484 43.39111328 -104.72021484 43.39111328 C-104.72021484 42.73111328 -104.72021484 42.07111328 -104.72021484 41.39111328 C-76.57412132 14.25875618 -38.71825491 -0.2660814 0 0 Z M-91.66162109 40.72705078 C-93.72021484 42.39111328 -93.72021484 42.39111328 -96.72021484 44.39111328 C-96.72021484 45.05111328 -96.72021484 45.71111328 -96.72021484 46.39111328 C-97.31318359 46.65923828 -97.90615234 46.92736328 -98.51708984 47.20361328 C-117.37191928 57.36650007 -129.40108923 85.4321801 -136.72021484 104.39111328 C-136.98165283 105.04837402 -137.24309082 105.70563477 -137.51245117 106.3828125 C-146.7748336 130.13026414 -146.44348284 158.05354121 -139.72021484 182.39111328 C-139.53297852 183.09333008 -139.34574219 183.79554688 -139.15283203 184.51904297 C-137.03664854 192.31493136 -134.28018222 199.78295031 -131.09521484 207.20361328 C-130.80606201 207.88004883 -130.51690918 208.55648437 -130.21899414 209.25341797 C-128.78220437 212.4759852 -127.4858637 215.13669042 -124.72021484 217.39111328 C-123.54801942 216.60765613 -122.38257816 215.81408492 -121.22021484 215.01611328 C-120.57052734 214.57525391 -119.92083984 214.13439453 -119.25146484 213.68017578 C-118.74615234 213.25478516 -118.24083984 212.82939453 -117.72021484 212.39111328 C-117.72021484 211.73111328 -117.72021484 211.07111328 -117.72021484 210.39111328 C-117.18912109 210.15908203 -116.65802734 209.92705078 -116.11083984 209.68798828 C-112.97896207 207.98899576 -110.26115828 205.83721232 -107.47021484 203.64111328 C-106.31571344 202.73949957 -105.16076597 201.83845675 -104.00537109 200.93798828 C-103.4460791 200.50164062 -102.88678711 200.06529297 -102.31054688 199.61572266 C-99.5949018 197.52458423 -96.80859954 195.53009129 -94.01318359 193.54736328 C-93.58650391 193.16580078 -93.15982422 192.78423828 -92.72021484 192.39111328 C-92.72021484 191.73111328 -92.72021484 191.07111328 -92.72021484 190.39111328 C-92.16591797 190.14619141 -91.61162109 189.90126953 -91.04052734 189.64892578 C-88.25527533 188.13907536 -86.02529058 186.29944195 -83.59521484 184.26611328 C-82.61939453 183.45658203 -81.64357422 182.64705078 -80.63818359 181.81298828 C-79.67525391 181.01376953 -78.71232422 180.21455078 -77.72021484 179.39111328 C-74.40327614 176.70370521 -71.06430815 174.04463004 -67.72021484 171.39111328 C-67.1370752 170.92817871 -66.55393555 170.46524414 -65.953125 169.98828125 C-64.04398006 168.47440238 -62.13245878 166.96357522 -60.22021484 165.45361328 C-59.60815186 164.96844238 -58.99608887 164.48327148 -58.36547852 163.98339844 C-53.95066739 160.50633955 -53.95066739 160.50633955 -51.72021484 159.39111328 C-51.72021484 158.73111328 -51.72021484 158.07111328 -51.72021484 157.39111328 C-50.82302734 156.95798828 -50.82302734 156.95798828 -49.90771484 156.51611328 C-47.52693692 155.34369302 -47.52693692 155.34369302 -44.72021484 153.39111328 C-40.26481247 152.75078371 -37.636693 153.11356576 -34.07958984 155.76220703 C-32.86228132 156.76740877 -31.65925825 157.79013057 -30.47021484 158.82861328 C-26.00542259 162.77686967 -26.00542259 162.77686967 -20.72021484 165.39111328 C-20.72021484 166.05111328 -20.72021484 166.71111328 -20.72021484 167.39111328 C-19.14317853 168.83010009 -19.14317853 168.83010009 -17.03271484 170.32861328 C-14.07133062 172.54496571 -11.20631335 174.81013628 -8.43896484 177.26220703 C-7.8752417 177.75793213 -7.31151855 178.25365723 -6.73071289 178.7644043 C-5.61720754 179.74918811 -4.51154542 180.74292786 -3.41479492 181.74633789 C0.04982266 184.78516644 2.62215984 186.33297371 7.27978516 186.39111328 C9.88260584 185.12183653 11.21231868 183.50780515 13.27978516 181.39111328 C13.27978516 180.73111328 13.27978516 180.07111328 13.27978516 179.39111328 C14.14482666 179.01611694 14.14482666 179.01611694 15.02734375 178.63354492 C17.5906572 177.21963834 19.27576324 175.60599255 21.31884766 173.51220703 C22.06392578 172.75617188 22.80900391 172.00013672 23.57666016 171.22119141 C24.72908203 170.03686523 24.72908203 170.03686523 25.90478516 168.82861328 C27.43641684 167.26263437 28.97016711 165.69872389 30.50634766 164.13720703 C31.52075928 163.09584595 31.52075928 163.09584595 32.55566406 162.03344727 C34.27978516 160.39111328 34.27978516 160.39111328 36.27978516 159.39111328 C36.27978516 158.73111328 36.27978516 158.07111328 36.27978516 157.39111328 C36.93978516 157.39111328 37.59978516 157.39111328 38.27978516 157.39111328 C38.27978516 156.73111328 38.27978516 156.07111328 38.27978516 155.39111328 C38.85631836 155.14127686 39.43285156 154.89144043 40.02685547 154.6340332 C42.59441867 153.21753296 44.27968283 151.60189361 46.32666016 149.50439453 C47.08978516 148.7303125 47.85291016 147.95623047 48.63916016 147.15869141 C49.82251953 145.94342773 49.82251953 145.94342773 51.02978516 144.70361328 C56.05040001 139.57003459 61.09146362 134.58079686 66.54248047 129.90356445 C68.7297288 127.99940433 70.76103363 125.97198024 72.77978516 123.89111328 C75.48782081 121.14610786 78.22147765 118.51840418 81.15478516 116.01611328 C86.49062167 111.44716825 91.35707491 106.39526543 96.27978516 101.39111328 C94.77629138 97.72324935 92.64249723 95.70200935 89.65478516 93.14111328 C88.83751953 92.43470703 88.02025391 91.72830078 87.17822266 91.00048828 C86.55173828 90.46939453 85.92525391 89.93830078 85.27978516 89.39111328 C92.33230765 86.17430725 99.48464135 83.27109841 106.7019043 80.44458008 C108.60744909 79.69766952 110.51104295 78.94593207 112.41455078 78.19384766 C114.22922852 77.48131836 114.22922852 77.48131836 116.08056641 76.75439453 C117.1753833 76.32425049 118.2702002 75.89410645 119.39819336 75.45092773 C121.69452704 74.6063641 123.8944209 73.91224585 126.27978516 73.39111328 C125.77374524 71.22237077 125.27994702 69.39143701 124.27978516 67.39111328 C123.61978516 67.39111328 122.95978516 67.39111328 122.27978516 67.39111328 C121.95494141 66.34697266 121.95494141 66.34697266 121.62353516 65.28173828 C119.93219045 61.64338048 117.51477918 59.01373047 114.77978516 56.14111328 C114.2400708 55.56828613 113.70035645 54.99545898 113.14428711 54.40527344 C93.1567399 33.4137855 69.29664843 18.84394268 41.27978516 11.39111328 C40.07966797 11.05595703 38.87955078 10.72080078 37.64306641 10.37548828 C26.42987409 7.64913812 15.15394455 7.01108365 3.65478516 7.07861328 C2.6076384 7.08284302 2.6076384 7.08284302 1.53933716 7.0871582 C-33.36076188 7.29797185 -64.63188754 18.44638371 -91.66162109 40.72705078 Z M128.27978516 76.39111328 C127.98955839 80.44348168 127.70501447 84.496209 127.42529297 88.54931641 C127.32977499 89.92246754 127.2328167 91.2955194 127.13427734 92.66845703 C126.51892141 101.25832353 126.13360464 109.77864446 126.27978516 118.39111328 C124.95914063 117.52486328 124.95914063 117.52486328 123.61181641 116.64111328 C122.43901753 115.890522 121.26581918 115.14055464 120.09228516 114.39111328 C119.51414062 114.00955078 118.93599609 113.62798828 118.34033203 113.23486328 C114.78327237 110.98406847 112.47237111 109.87221281 108.27978516 110.39111328 C106.28342137 111.71913235 106.28342137 111.71913235 104.58056641 113.63720703 C103.92894531 114.30945313 103.27732422 114.98169922 102.60595703 115.67431641 C101.94144531 116.38523438 101.27693359 117.09615234 100.59228516 117.82861328 C99.25699111 119.22500754 97.91983997 120.61962905 96.58056641 122.01220703 C95.9944458 122.63538818 95.4083252 123.25856934 94.80444336 123.90063477 C93.27978516 125.39111328 93.27978516 125.39111328 91.27978516 126.39111328 C91.27978516 127.05111328 91.27978516 127.71111328 91.27978516 128.39111328 C90.70228516 128.63861328 90.12478516 128.88611328 89.52978516 129.14111328 C86.95038536 130.57411317 85.21856924 132.17536005 83.27978516 134.39111328 C83.27978516 135.05111328 83.27978516 135.71111328 83.27978516 136.39111328 C82.68955566 136.654646 82.09932617 136.91817871 81.49121094 137.18969727 C79.18817988 138.44088029 77.71617073 139.73916306 75.89697266 141.61376953 C75.28724609 142.23445313 74.67751953 142.85513672 74.04931641 143.49462891 C73.42412109 144.14109375 72.79892578 144.78755859 72.15478516 145.45361328 C70.90442441 146.73835258 69.65191999 148.02101009 68.39697266 149.30126953 C67.84638184 149.86982666 67.29579102 150.43838379 66.72851562 151.02416992 C65.27978516 152.39111328 65.27978516 152.39111328 63.27978516 153.39111328 C63.27978516 154.05111328 63.27978516 154.71111328 63.27978516 155.39111328 C62.28978516 155.72111328 61.29978516 156.05111328 60.27978516 156.39111328 C60.27978516 157.05111328 60.27978516 157.71111328 60.27978516 158.39111328 C59.70325195 158.64094971 59.12671875 158.89078613 58.53271484 159.14819336 C55.96515165 160.5646936 54.27988748 162.18033295 52.23291016 164.27783203 C51.46978516 165.05191406 50.70666016 165.82599609 49.92041016 166.62353516 C49.13150391 167.43371094 48.34259766 168.24388672 47.52978516 169.07861328 C42.56080871 174.15939169 37.57219836 179.08950047 32.17773438 183.71801758 C29.04235909 186.48193922 26.13820364 189.46653582 23.21728516 192.45361328 C19.76106671 195.98758692 16.27841438 199.47385731 12.59619141 202.77392578 C11.78516968 203.50119873 11.78516968 203.50119873 10.95776367 204.24316406 C8.43619748 205.96823379 6.2380655 206.2857516 3.22900391 206.02783203 C0.1141767 205.01036342 -1.49361528 202.98373592 -3.63037109 200.57080078 C-6.14763313 197.94532 -8.94012543 195.80977941 -11.84521484 193.64111328 C-16.54427084 190.10163552 -21.11487943 186.45415085 -25.59521484 182.64111328 C-26.14064941 182.17890381 -26.68608398 181.71669434 -27.24804688 181.24047852 C-29.50623843 179.31772033 -31.7365243 177.3760517 -33.91552734 175.36376953 C-37.07832999 172.36822576 -37.07832999 172.36822576 -41.10693359 171.01611328 C-44.54558352 171.50955184 -45.92749403 172.79340384 -48.53271484 175.07861328 C-49.47630859 175.88685547 -50.41990234 176.69509766 -51.39208984 177.52783203 C-51.91351563 177.9794873 -52.43494141 178.43114258 -52.97216797 178.89648438 C-56.35718062 181.79076475 -59.82569038 184.58366328 -63.28271484 187.39111328 C-63.98565674 187.96692139 -64.68859863 188.54272949 -65.4128418 189.13598633 C-66.07243896 189.67392822 -66.73203613 190.21187012 -67.41162109 190.76611328 C-68.00144775 191.24822266 -68.59127441 191.73033203 -69.19897461 192.22705078 C-70.72021484 193.39111328 -70.72021484 193.39111328 -72.72021484 194.39111328 C-72.72021484 195.05111328 -72.72021484 195.71111328 -72.72021484 196.39111328 C-73.30270996 196.6649585 -73.88520508 196.93880371 -74.48535156 197.22094727 C-76.67031142 198.36498404 -78.51654151 199.62339281 -80.47802734 201.11376953 C-81.53244019 201.91476074 -81.53244019 201.91476074 -82.6081543 202.73193359 C-83.34638428 203.30008789 -84.08461426 203.86824219 -84.84521484 204.45361328 C-85.60858154 205.03852539 -86.37194824 205.6234375 -87.15844727 206.22607422 C-92.07824895 210.02989924 -96.74151104 214.00819644 -101.29443359 218.24658203 C-105.8546715 222.2780967 -110.79939926 225.81464422 -115.72021484 229.39111328 C-115.28070982 234.24360756 -112.90085406 237.05993089 -109.78271484 240.57861328 C-109.03683105 241.43398682 -109.03683105 241.43398682 -108.27587891 242.30664062 C-106.7716862 244.01499426 -105.25014649 245.70580192 -103.72021484 247.39111328 C-102.51945312 248.71949219 -102.51945312 248.71949219 -101.29443359 250.07470703 C-80.68450338 271.72379339 -47.61097058 289.45446931 -17.57568359 291.21533203 C-15.72021484 291.39111328 -15.72021484 291.39111328 -13.72021484 292.39111328 C-11.19003409 292.48983205 -8.68801323 292.53096996 -6.15771484 292.52392578 C-5.41062256 292.52488251 -4.66353027 292.52583923 -3.89379883 292.52682495 C-2.31347571 292.52750577 -0.73314979 292.52565831 0.84716797 292.52148438 C3.27008325 292.5161347 5.69281316 292.52143264 8.11572266 292.52783203 C9.64957723 292.52717123 11.18343169 292.52589003 12.71728516 292.52392578 C13.44439697 292.52595001 14.17150879 292.52797424 14.9206543 292.53005981 C18.72640017 292.57619991 18.72640017 292.57619991 22.27978516 291.39111328 C23.63232344 291.2845676 24.98711885 291.20619846 26.34228516 291.14111328 C34.27367688 290.40863266 41.73073444 287.80560844 49.27978516 285.39111328 C50.44767578 285.03146484 51.61556641 284.67181641 52.81884766 284.30126953 C74.13569801 277.28717709 92.27617218 264.86434715 108.27978516 249.39111328 C109.11251953 248.59833984 109.94525391 247.80556641 110.80322266 246.98876953 C113.6323024 244.27508465 113.6323024 244.27508465 116.27978516 241.39111328 C116.27978516 240.73111328 116.27978516 240.07111328 116.27978516 239.39111328 C116.93978516 239.39111328 117.59978516 239.39111328 118.27978516 239.39111328 C142.18865887 209.52982288 153.13572416 172.37401203 150.27978516 134.39111328 C147.81554557 116.03999574 142.64327818 99.0229803 133.64697266 82.87158203 C132.46886021 80.73414944 131.35262624 78.58277436 130.27978516 76.39111328 C129.61978516 76.39111328 128.95978516 76.39111328 128.27978516 76.39111328 Z " fill="#E0E0DF" transform="translate(149.72021484375,-0.39111328125)"/>
<path d="M0 0 C3.63 0 7.26 0 11 0 C11 4.95 11 9.9 11 15 C14.63 15 18.26 15 22 15 C22.11585964 25.99615656 22.20469815 36.99216787 22.25906086 47.98881054 C22.28515264 53.09505462 22.32054329 58.20088106 22.37719727 63.30688477 C22.43153163 68.23467932 22.46142369 73.16207221 22.47438622 78.0901432 C22.48362352 79.97005855 22.50166208 81.84995196 22.52865028 83.72969627 C22.56496015 86.36349324 22.56994464 88.99563161 22.56762695 91.62963867 C22.58560333 92.40647507 22.60357971 93.18331146 22.62210083 93.98368835 C22.58346376 98.04270355 22.15409475 99.80673899 19.58952332 103.02314758 C17 105 17 105 15 105 C14.34 106.32 13.68 107.64 13 109 C12.34 109 11.68 109 11 109 C11 109.66 11 110.32 11 111 C10.34 111 9.68 111 9 111 C9 111.66 9 112.32 9 113 C7.46875 114.5078125 7.46875 114.5078125 5.5 116.125 C4.8503125 116.66382813 4.200625 117.20265625 3.53125 117.7578125 C3.0259375 118.16773438 2.520625 118.57765625 2 119 C-3.97066701 116.76448975 -8.52748461 114.54192282 -12 109 C-13.67208223 102.16367985 -13.04477169 94.85056975 -12.87890625 87.875 C-12.86210534 85.80137908 -12.84930118 83.72772226 -12.84031677 81.65405273 C-12.80606905 76.21482474 -12.71776477 70.77778432 -12.61798096 65.3394165 C-12.52565966 59.78256827 -12.48475483 54.22536402 -12.43945312 48.66796875 C-12.3431356 37.77768839 -12.18967482 26.8890266 -12 16 C-8.04 16 -4.08 16 0 16 C0 10.72 0 5.44 0 0 Z " fill="#E4E4E4" transform="translate(154,56)"/>
<path d="M0 0 C3.63 0 7.26 0 11 0 C11 4.95 11 9.9 11 15 C14.96 15 18.92 15 23 15 C23.18114432 23.09331935 23.32772962 31.18504902 23.41449738 39.27985477 C23.45615395 43.03914585 23.51259534 46.796972 23.60351562 50.55541992 C23.69080078 54.18655589 23.73834578 57.8162884 23.75901794 61.44839287 C23.7737374 62.83000212 23.80248461 64.2115392 23.84584045 65.59254646 C24.17112872 76.3887938 24.17112872 76.3887938 21.34979248 80.27030945 C19.32246993 82.04437348 17.24768257 83.51998651 15 85 C13.2356626 86.69209216 11.48865513 88.40258222 9.765625 90.13671875 C8.86199219 91.04357422 7.95835937 91.95042969 7.02734375 92.88476562 C6.11082031 93.80966797 5.19429687 94.73457031 4.25 95.6875 C3.30883177 96.63370035 2.36742673 97.57966522 1.42578125 98.52539062 C-0.29901747 100.25885046 -2.02278003 101.99334242 -3.74511719 103.72924805 C-4.48922852 104.47859619 -5.23333984 105.22794434 -6 106 C-6.71575195 106.75772705 -7.43150391 107.5154541 -8.16894531 108.29614258 C-10 110 -10 110 -12 110 C-12 78.65 -12 47.3 -12 15 C-8.04 15 -4.08 15 0 15 C0 10.05 0 5.1 0 0 Z " fill="#DFDFDF" transform="translate(198,35)"/>
<path d="M0 0 C3.3 0 6.6 0 10 0 C10 4.95 10 9.9 10 15 C13.63 15 17.26 15 21 15 C21.32349052 21.49163158 21.558179 27.97849816 21.71411133 34.47631836 C21.7791475 36.68157717 21.86761706 38.88628268 21.98071289 41.08959961 C22.94685975 60.40816517 22.94685975 60.40816517 18.21313477 65.83666992 C15.08594 68.73356947 11.67052769 70.85123815 8 73 C6.41875337 74.20495479 4.85109206 75.42853557 3.3125 76.6875 C2.27029297 77.48414063 2.27029297 77.48414063 1.20703125 78.296875 C-2.25500523 80.96846422 -5.638727 83.73705112 -9.03125 86.49609375 C-11 88 -11 88 -12 88 C-12 63.91 -12 39.82 -12 15 C-8.04 15 -4.08 15 0 15 C0 10.05 0 5.1 0 0 Z " fill="#E7E7E7" transform="translate(67,93)"/>
<path d="M0 0 C16.96609868 20.24281302 20.79717552 49.92028854 20.5625 75.3125 C20.55824005 76.30101959 20.5539801 77.28953918 20.54959106 78.30801392 C20.46320816 92.71123488 19.83726197 106.30297438 15 120 C14.74299316 120.77649902 14.48598633 121.55299805 14.22119141 122.35302734 C6.84638499 144.39595702 -5.89753998 163.40284075 -22 180 C-22.89074219 180.93714844 -23.78148437 181.87429687 -24.69921875 182.83984375 C-27 185 -27 185 -29 185 C-29 185.66 -29 186.32 -29 187 C-29.66 187 -30.32 187 -31 187 C-31 187.66 -31 188.32 -31 189 C-32.3984375 190.27758789 -32.3984375 190.27758789 -34.375 191.72265625 C-35.10485107 192.25689209 -35.83470215 192.79112793 -36.58666992 193.34155273 C-37.38306885 193.90946533 -38.17946777 194.47737793 -39 195.0625 C-39.81509033 195.64523682 -40.63018066 196.22797363 -41.4699707 196.82836914 C-61.33594315 210.8164019 -88.03084006 224.47933815 -113 224 C-109.88089144 222.20724134 -107.32317572 221.65709282 -103.75 221.375 C-102.41195312 221.26285156 -102.41195312 221.26285156 -101.046875 221.1484375 C-100.37140625 221.09945312 -99.6959375 221.05046875 -99 221 C-98.505 219.02 -98.505 219.02 -98 217 C-96.68 216.67 -95.36 216.34 -94 216 C-94 215.01 -94 214.02 -94 213 C-94 212.67 -94 212.34 -94 212 C-93.25621094 211.83886719 -92.51242188 211.67773438 -91.74609375 211.51171875 C-67.20589216 205.39839816 -45.89229512 191.53389784 -28 174 C-27.25621094 173.28328125 -26.51242187 172.5665625 -25.74609375 171.828125 C-22.45589332 168.7264383 -22.45589332 168.7264383 -20 165 C-19.34 165 -18.68 165 -18 165 C-17.79375 164.34 -17.5875 163.68 -17.375 163 C-16.18867549 160.41165561 -15.11160263 158.75684843 -13.375 156.5625 C7.63341883 129.18016769 15.55386733 93.96546075 13 60 C10.56649144 41.87773552 5.26404153 25.23293871 -3 9 C-2.26330078 8.35611328 -2.26330078 8.35611328 -1.51171875 7.69921875 C0.33146455 5.98080688 0.33146455 5.98080688 0.1875 2.8125 C0.125625 1.884375 0.06375 0.95625 0 0 Z " fill="#999696" transform="translate(286,74)"/>
<path d="M0 0 C3.3 0 6.6 0 10 0 C10 4.95 10 9.9 10 15 C13.96 15 17.92 15 22 15 C22 36.12 22 57.24 22 79 C16.31149832 74.73362374 11.06200489 70.48822432 5.80859375 65.7578125 C2.26441672 63.53962103 0.1132311 63.53714221 -4 64 C-7.29248108 65.83317376 -7.29248108 65.83317376 -10 68 C-10.99 68.495 -10.99 68.495 -12 69 C-12 51.18 -12 33.36 -12 15 C-8.04 15 -4.08 15 0 15 C0 10.05 0 5.1 0 0 Z " fill="#EDEDED" transform="translate(110,78)"/>
<path d="M0 0 C0.66 0 1.32 0 2 0 C2.33 0.99 2.66 1.98 3 3 C3.66 3.33 4.32 3.66 5 4 C5 4.99 5 5.98 5 7 C8.3 7 11.6 7 15 7 C15.38929687 7.85980469 15.77859375 8.71960938 16.1796875 9.60546875 C18.12356005 13.23041562 20.44245994 16.22748599 23.125 19.3125 C23.61581055 19.88081543 24.10662109 20.44913086 24.61230469 21.03466797 C26.06357868 22.70019558 27.52793663 24.35283857 29 26 C29.72445312 26.81082031 30.44890625 27.62164062 31.1953125 28.45703125 C51.43405888 49.81160205 84.68843205 67.09731176 114.14453125 68.82421875 C116 69 116 69 118 70 C120.53018076 70.09871877 123.03220161 70.13985668 125.5625 70.1328125 C126.30959229 70.13376923 127.05668457 70.13472595 127.82641602 70.13571167 C129.40673914 70.13639249 130.98706506 70.13454503 132.56738281 70.13037109 C134.9902981 70.12502142 137.413028 70.13031935 139.8359375 70.13671875 C141.36979208 70.13605795 142.90364654 70.13477675 144.4375 70.1328125 C145.16461182 70.13483673 145.89172363 70.13686096 146.64086914 70.13894653 C150.44661501 70.18508663 150.44661501 70.18508663 154 69 C155.55898491 68.82044598 157.12260877 68.67992675 158.6875 68.5625 C162.99859137 68.17735927 166.84308454 67.22262219 171 66 C173.9375 65.875 173.9375 65.875 176 66 C175.25 67.9375 175.25 67.9375 174 70 C172.67405895 70.36162029 171.34061543 70.69728039 170 71 C169.67 71.99 169.34 72.98 169 74 C165.875 74.9140625 165.875 74.9140625 162 75.625 C157.67344051 76.08625139 157.67344051 76.08625139 154 78 C151.51804638 78.13898327 149.06604084 78.21264744 146.58203125 78.23828125 C145.82148438 78.2480751 145.0609375 78.25786896 144.27734375 78.26795959 C127.52531353 78.43875769 111.28399026 78.45495799 95 74 C94.21189941 73.78569336 93.42379883 73.57138672 92.61181641 73.35058594 C82.08180662 70.3741956 72.38081151 66.10195835 62.75292969 60.9375 C61.16015428 60.08565354 59.55340988 59.2600562 57.9453125 58.4375 C51.14853764 54.89470517 45.10553061 50.61592826 39 46 C37.77796875 45.12214844 37.77796875 45.12214844 36.53125 44.2265625 C35.7990625 43.69804687 35.066875 43.16953125 34.3125 42.625 C33.66925781 42.16351563 33.02601562 41.70203125 32.36328125 41.2265625 C31.91339844 40.82179688 31.46351562 40.41703125 31 40 C31 39.34 31 38.68 31 38 C30.41734375 37.7421875 29.8346875 37.484375 29.234375 37.21875 C26.8197097 35.90165983 25.18259823 34.44911616 23.25 32.5 C22.32960938 31.58734375 22.32960938 31.58734375 21.390625 30.65625 C20 29 20 29 20 27 C19.34 27 18.68 27 18 27 C16.1816039 24.93432615 14.48712662 22.86561096 12.8125 20.6875 C12.32289795 20.05682617 11.8332959 19.42615234 11.32885742 18.77636719 C0 4.00396918 0 4.00396918 0 0 Z " fill="#E3E1E0" transform="translate(18,221)"/>
<path d="M0 0 C0.9445253 0.00141495 1.8890506 0.0028299 2.86219788 0.00428772 C5.85738388 0.00985265 8.85249312 0.02239858 11.84765625 0.03515625 C13.88736871 0.04017579 15.92708234 0.0447379 17.96679688 0.04882812 C22.94794591 0.05981058 27.9290381 0.07705085 32.91015625 0.09765625 C32.91015625 0.75765625 32.91015625 1.41765625 32.91015625 2.09765625 C34.23015625 2.75765625 35.55015625 3.41765625 36.91015625 4.09765625 C36.58015625 5.08765625 36.25015625 6.07765625 35.91015625 7.09765625 C34.80317383 7.11223877 33.69619141 7.12682129 32.55566406 7.1418457 C-5.49922949 7.68369302 -39.69826471 10.37184979 -71.953125 32.9453125 C-72.65824219 33.32558594 -73.36335938 33.70585938 -74.08984375 34.09765625 C-75.07984375 33.76765625 -76.06984375 33.43765625 -77.08984375 33.09765625 C-76.27734375 30.66015625 -76.27734375 30.66015625 -75.08984375 28.09765625 C-74.09984375 27.76765625 -73.10984375 27.43765625 -72.08984375 27.09765625 C-72.08984375 26.43765625 -72.08984375 25.77765625 -72.08984375 25.09765625 C-67.70522837 22.09765625 -67.70522837 22.09765625 -65.08984375 22.09765625 C-65.04859375 21.50726562 -65.00734375 20.916875 -64.96484375 20.30859375 C-63.10594896 15.61156494 -56.6168366 13.95325053 -52.18261719 11.98681641 C-35.58762036 4.93607231 -18.10957068 -0.10334384 0 0 Z " fill="#EDECEB" transform="translate(141.08984375,-0.09765625)"/>
<path d="M0 0 C0 0.66 0 1.32 0 2 C-2.5614657 4.29648649 -3.47967572 5 -7 5 C-7 5.66 -7 6.32 -7 7 C-7.680625 7.61875 -8.36125 8.2375 -9.0625 8.875 C-10.0215625 9.926875 -10.0215625 9.926875 -11 11 C-10.67768172 13.11313998 -10.67768172 13.11313998 -10 15 C-11.59987856 16.31772362 -13.20505966 17.62901137 -14.8125 18.9375 C-15.70582031 19.66839844 -16.59914062 20.39929688 -17.51953125 21.15234375 C-20 23 -20 23 -23 24 C-23 24.66 -23 25.32 -23 26 C-24.3984375 27.3046875 -24.3984375 27.3046875 -26.375 28.875 C-39.97561294 40.45357491 -52.44606257 58.01148551 -58 75 C-58.60328125 74.80535156 -59.2065625 74.61070313 -59.828125 74.41015625 C-62.18172654 73.7333761 -62.18172654 73.7333761 -64.75 75.4375 C-65.4925 75.953125 -66.235 76.46875 -67 77 C-62.82925025 59.40340819 -51.43030349 44.60034231 -40 31 C-39.29359375 30.07058594 -38.5871875 29.14117187 -37.859375 28.18359375 C-37.24578125 27.46300781 -36.6321875 26.74242188 -36 26 C-35.34 26 -34.68 26 -34 26 C-33.505 24.515 -33.505 24.515 -33 23 C-32.34 23 -31.68 23 -31 23 C-31 22.34 -31 21.68 -31 21 C-24.73111208 14.9568983 -8.96161046 0 0 0 Z " fill="#ECEAEB" transform="translate(76,20)"/>
<path d="M0 0 C8.1609511 9.73710045 12.33502107 21.9864301 16 34 C16.21462891 34.69351563 16.42925781 35.38703125 16.65039062 36.1015625 C22.3395186 55.39041543 20.97812839 77.21639167 19 97 C18.34 97 17.68 97 17 97 C16.67 97.66 16.34 98.32 16 99 C14.515 98.01 14.515 98.01 13 97 C12.79334112 94.4347259 12.77182274 92.11104905 12.8828125 89.5546875 C12.92008472 87.99783148 12.95608464 86.44094461 12.9909668 84.8840332 C13.0137973 84.06585114 13.03662781 83.24766907 13.06015015 82.4046936 C13.47204006 66.33749785 12.47519894 51.53909932 8 36 C7.74613525 35.11054687 7.49227051 34.22109375 7.23071289 33.3046875 C4.72226101 24.72318306 1.04920182 16.95378928 -3 9 C-2.50886719 8.57074219 -2.01773437 8.14148438 -1.51171875 7.69921875 C0.33146455 5.98080688 0.33146455 5.98080688 0.1875 2.8125 C0.125625 1.884375 0.06375 0.95625 0 0 Z " fill="#BDBBB9" transform="translate(286,74)"/>
<path d="M0 0 C0.598125 0.350625 1.19625 0.70125 1.8125 1.0625 C1.72265625 3.26171875 1.72265625 3.26171875 0.8125 6.0625 C-1.36276691 7.91192943 -3.35249698 9.37465225 -5.75 10.875 C-6.7555896 11.52130371 -6.7555896 11.52130371 -7.78149414 12.18066406 C-26.27487554 23.82631611 -50.89396738 35.62064095 -73.1875 35.0625 C-70.06839144 33.26974134 -67.51067572 32.71959282 -63.9375 32.4375 C-63.04546875 32.36273438 -62.1534375 32.28796875 -61.234375 32.2109375 C-60.55890625 32.16195312 -59.8834375 32.11296875 -59.1875 32.0625 C-58.8575 30.7425 -58.5275 29.4225 -58.1875 28.0625 C-56.8675 27.7325 -55.5475 27.4025 -54.1875 27.0625 C-54.1875 26.0725 -54.1875 25.0825 -54.1875 24.0625 C-54.1875 23.7325 -54.1875 23.4025 -54.1875 23.0625 C-53.44371094 22.90136719 -52.69992188 22.74023438 -51.93359375 22.57421875 C-36.0835743 18.62574873 -20.5153788 11.10489735 -7.296875 1.5234375 C-4.59113918 -0.35053509 -3.14398563 -1.34742241 0 0 Z " fill="#B0ADAC" transform="translate(246.1875,262.9375)"/>
<path d="M0 0 C3.83990988 1.38375131 6.97052564 3.16309349 10.3125 5.5 C11.19550781 6.1084375 12.07851562 6.716875 12.98828125 7.34375 C13.65214844 7.8903125 14.31601563 8.436875 15 9 C15 9.66 15 10.32 15 11 C15.73065674 11.24387451 16.46131348 11.48774902 17.21411133 11.73901367 C20.34009557 13.15393862 22.14800224 14.76040875 24.57421875 17.17578125 C25.40630859 18.00400391 26.23839844 18.83222656 27.09570312 19.68554688 C28.37864258 20.98588867 28.37864258 20.98588867 29.6875 22.3125 C30.55439453 23.16779297 31.42128906 24.02308594 32.31445312 24.90429688 C33.14267578 25.73638672 33.97089844 26.56847656 34.82421875 27.42578125 C35.95476685 28.56140503 35.95476685 28.56140503 37.1081543 29.7199707 C39.05978288 32.0720496 40.03765911 34.11679235 41 37 C41.66 37 42.32 37 43 37 C44.62677091 39.13770618 46.13979644 41.2675534 47.625 43.5 C48.04523438 44.12003906 48.46546875 44.74007812 48.8984375 45.37890625 C49.93837167 46.91517264 50.96997056 48.45707524 52 50 C51.505 50.99 51.505 50.99 51 52 C49.68 52 48.36 52 47 52 C47 51.34 47 50.68 47 50 C45.35 50 43.7 50 42 50 C41.34 48.35 40.68 46.7 40 45 C39.34 45 38.68 45 38 45 C36.77393383 43.41933626 35.62021335 41.78236483 34.5 40.125 C27.79641557 30.73037092 19.70738938 23.50010857 10.55810547 16.578125 C6.09500112 13.19000225 6.09500112 13.19000225 5 11 C5.66 11 6.32 11 7 11 C7 9.68 7 8.36 7 7 C6.34 7 5.68 7 5 7 C4.67 6.01 4.34 5.02 4 4 C3.34 4.66 2.68 5.32 2 6 C0 3 0 3 0 0 Z " fill="#CECCCB" transform="translate(234,22)"/>
<path d="M0 0 C0.33 0 0.66 0 1 0 C2.53525306 18.08186943 -3.49488479 36.7420678 -11 53 C-13.1385485 55.1385485 -14.13275314 55.42655063 -17 56 C-16.67 56.99 -16.34 57.98 -16 59 C-17.98 58.67 -19.96 58.34 -22 58 C-21.35457465 53.15930989 -19.32270442 49.22980634 -17.25 44.875 C-11.98450737 33.45205895 -8.57082722 21.48394267 -7 9 C-5.68 10.32 -4.36 11.64 -3 13 C-2.01 12.67 -1.02 12.34 0 12 C0 8.04 0 4.08 0 0 Z " fill="#A09D9D" transform="translate(305,159)"/>
<path d="M0 0 C6.35156868 7.5782665 9.98317293 16.48430195 13.375 25.6875 C13.63780762 26.37553711 13.90061523 27.06357422 14.17138672 27.77246094 C16.02551748 33.00487023 16.22850545 37.45602253 16 43 C15.34 43 14.68 43 14 43 C13.67 43.99 13.34 44.98 13 46 C9.77949969 43.85299979 9.60559459 43.65680246 8.75390625 40.18359375 C8.46084595 39.04349854 8.46084595 39.04349854 8.16186523 37.88037109 C7.96407471 37.07422363 7.76628418 36.26807617 7.5625 35.4375 C5.87695845 28.98355822 4.06725623 22.9512103 1 17 C0.62488281 16.23816406 0.24976563 15.47632812 -0.13671875 14.69140625 C-1.07721007 12.78732382 -2.03651844 10.89255307 -3 9 C-2.50886719 8.57074219 -2.01773437 8.14148438 -1.51171875 7.69921875 C0.33146455 5.98080688 0.33146455 5.98080688 0.1875 2.8125 C0.125625 1.884375 0.06375 0.95625 0 0 Z " fill="#BFBEBE" transform="translate(286,74)"/>
<path d="M0 0 C-0.66 0.33 -1.32 0.66 -2 1 C-1.34 2.65 -0.68 4.3 0 6 C-2.63808658 9.24244824 -6.00085353 10.46488391 -9.8125 11.875 C-10.49739502 12.13039551 -11.18229004 12.38579102 -11.88793945 12.64892578 C-22.45375422 16.41285891 -34.70739548 20.28272168 -46 20 C-42.88089144 18.20724134 -40.32317572 17.65709282 -36.75 17.375 C-35.85796875 17.30023438 -34.9659375 17.22546875 -34.046875 17.1484375 C-33.37140625 17.09945313 -32.6959375 17.05046875 -32 17 C-31.67 15.68 -31.34 14.36 -31 13 C-29.68 12.67 -28.36 12.34 -27 12 C-27 11.01 -27 10.02 -27 9 C-27 8.67 -27 8.34 -27 8 C-25.62328125 7.63648438 -25.62328125 7.63648438 -24.21875 7.265625 C-16.10501219 5.11248993 -16.10501219 5.11248993 -8.4375 1.75 C-5.17987615 0.09157331 -3.56579572 -0.44572447 0 0 Z " fill="#BBB7B6" transform="translate(219,278)"/>
<path d="M0 0 C0.33 0.66 0.66 1.32 1 2 C0.0625 4.625 0.0625 4.625 -1 7 C-0.01 7 0.98 7 2 7 C2.66 7.33 3.32 7.66 4 8 C3.48050781 8.83402344 2.96101563 9.66804688 2.42578125 10.52734375 C-5.15713953 21.66653327 -5.15713953 21.66653327 -10 34 C-10.556875 33.773125 -11.11375 33.54625 -11.6875 33.3125 C-14.92123084 32.87550935 -16.39073978 34.18801373 -19 36 C-16.09373541 23.7383313 -9.04546105 9.04546105 0 0 Z " fill="#D4D2D3" transform="translate(28,61)"/>
<path d="M0 0 C0.66 0 1.32 0 2 0 C2.33 0.99 2.66 1.98 3 3 C3.66 3.33 4.32 3.66 5 4 C5 4.99 5 5.98 5 7 C8.3 7 11.6 7 15 7 C15.350625 7.804375 15.70125 8.60875 16.0625 9.4375 C18.35942042 14.08709134 21.74913183 17.99208034 25 22 C24.01 22.99 23.02 23.98 22 25 C22.66 27.31 23.32 29.62 24 32 C22 30.625 22 30.625 20 29 C20 28.34 20 27.68 20 27 C19.34 27 18.68 27 18 27 C16.1816039 24.93432615 14.48712662 22.86561096 12.8125 20.6875 C12.32289795 20.05682617 11.8332959 19.42615234 11.32885742 18.77636719 C0 4.00396918 0 4.00396918 0 0 Z " fill="#B2B2B1" transform="translate(18,221)"/>
<path d="M0 0 C3.71753206 0.07369557 5.67147878 2.35700697 8.1640625 4.90039062 C8.64617188 5.40763672 9.12828125 5.91488281 9.625 6.4375 C10.11484375 6.94087891 10.6046875 7.44425781 11.109375 7.96289062 C12.41207126 9.30295932 13.7064941 10.65105813 15 12 C15.66 12.66 16.32 13.32 17 14 C16.625 17.125 16.625 17.125 16 20 C16.5775 19.79375 17.155 19.5875 17.75 19.375 C20.51967567 18.91338739 21.64561267 19.57055055 24 21 C23.67 21.66 23.34 22.32 23 23 C23 23.66 23 24.32 23 25 C23.99 24.34 24.98 23.68 26 23 C25.67 24.65 25.34 26.3 25 28 C20.68711193 26.52769684 17.28218566 24.23423235 13.6875 21.5 C13.13771484 21.09652344 12.58792969 20.69304687 12.02148438 20.27734375 C10.63992549 19.23731309 9.31443702 18.12366546 8 17 C8 16.34 8 15.68 8 15 C7.401875 14.731875 6.80375 14.46375 6.1875 14.1875 C3.8657214 12.9271059 2.5505691 12.14126209 1 10 C0.63858045 7.67085177 0.30300475 5.33746522 0 3 C-0.66 2.67 -1.32 2.34 -2 2 C-1.34 1.34 -0.68 0.68 0 0 Z " fill="#DFDDDC" transform="translate(41,244)"/>
<path d="M0 0 C0.66 0.99 1.32 1.98 2 3 C2.98095748 4.01868662 3.97702078 5.02351983 5 6 C4.37351562 6.75925781 3.74703125 7.51851562 3.1015625 8.30078125 C2.28429688 9.29464844 1.46703125 10.28851563 0.625 11.3125 C-0.18710937 12.29863281 -0.99921875 13.28476562 -1.8359375 14.30078125 C-4.05604957 16.98908379 -4.05604957 16.98908379 -6 20 C-6.99 20 -7.98 20 -9 20 C-9.33 20.66 -9.66 21.32 -10 22 C-10.99 21.67 -11.98 21.34 -13 21 C-11.43077361 11.72546969 -6.49389909 6.40861336 0 0 Z " fill="#E5E3E3" transform="translate(39,48)"/>
<path d="M0 0 C1.32 0 2.64 0 4 0 C2.57213608 5.05184464 0.35365457 8.9773155 -2.5 13.3125 C-2.90347656 13.94478516 -3.30695313 14.57707031 -3.72265625 15.22851562 C-6.73612351 19.86806176 -6.73612351 19.86806176 -9 21 C-11.48055794 17.27916309 -11.78594852 14.31127102 -11 10 C-9.59853438 7.12382143 -7.90870774 4.56312182 -6 2 C-3.69 2.66 -1.38 3.32 1 4 C1 3.34 1 2.68 1 2 C0.34 1.67 -0.32 1.34 -1 1 C-0.67 0.67 -0.34 0.34 0 0 Z " fill="#999696" transform="translate(288,214)"/>
<path d="M0 0 C6.56570432 -0.44766166 12.78511008 0.86301892 19 3 C19.33 3.66 19.66 4.32 20 5 C19.34 5 18.68 5 18 5 C17.67 6.32 17.34 7.64 17 9 C12.14844606 10.4681055 8.03212592 9.51680603 3.1875 8.5625 C2.39923828 8.41490234 1.61097656 8.26730469 0.79882812 8.11523438 C-1.13569046 7.75177937 -3.0680778 7.37701238 -5 7 C-5 6.67 -5 6.34 -5 6 C-1.535 5.505 -1.535 5.505 2 5 C2 4.01 2 3.02 2 2 C1.34 1.34 0.68 0.68 0 0 Z " fill="#DDDBDA" transform="translate(174,1)"/>
<path d="M0 0 C0.66 0.33 1.32 0.66 2 1 C2 1.66 2 2.32 2 3 C2.66 3 3.32 3 4 3 C5.62677091 5.13770618 7.13979644 7.2675534 8.625 9.5 C9.25535156 10.43005859 9.25535156 10.43005859 9.8984375 11.37890625 C10.93837167 12.91517264 11.96997056 14.45707524 13 16 C12.67 16.66 12.34 17.32 12 18 C10.68 18 9.36 18 8 18 C8 17.34 8 16.68 8 16 C6.35 16 4.7 16 3 16 C2.34 14.35 1.68 12.7 1 11 C0.34 11 -0.32 11 -1 11 C-2.2890625 9.25 -2.2890625 9.25 -3.625 7 C-4.07101562 6.2575 -4.51703125 5.515 -4.9765625 4.75 C-5.31429688 4.1725 -5.65203125 3.595 -6 3 C-5.01 3 -4.02 3 -3 3 C-3 2.34 -3 1.68 -3 1 C-2.01 0.67 -1.02 0.34 0 0 Z " fill="#C7C6C4" transform="translate(273,56)"/>
<path d="M0 0 C5.60040952 6.56599737 7.5952504 12.63760824 9 21 C7.02 21.66 5.04 22.32 3 23 C1 18 -1 13 -3 8 C-2.01 7.34 -1.02 6.68 0 6 C0.2502157 2.91634129 0.2502157 2.91634129 0 0 Z " fill="#C8C6C5" transform="translate(286,74)"/>
<path d="M0 0 C2.47960445 9.56118665 2.47960445 9.56118665 1 14 C0.34 14.53625 -0.32 15.0725 -1 15.625 C-3.41268662 18.49006536 -3.47398752 20.61423838 -3.71875 24.2734375 C-4.26912528 29.60902003 -5.72187593 34.79908004 -7 40 C-7.33 40 -7.66 40 -8 40 C-9.07760846 26.41016002 -5.16443552 12.47156238 0 0 Z " fill="#AFABAB" transform="translate(8,97)"/>
<path d="M0 0 C6.435 2.97 6.435 2.97 13 6 C11.68 7.32 10.36 8.64 9 10 C9.33 10.99 9.66 11.98 10 13 C5.1725201 11.58707905 1.2837641 9.57025846 -3 7 C-2.01 6.67 -1.02 6.34 0 6 C1.33333333 3 1.33333333 3 0 0 Z " fill="#D7D5D5" transform="translate(78,272)"/>
<path d="M0 0 C0.33 0.66 0.66 1.32 1 2 C0.67 2.99 0.34 3.98 0 5 C-0.66 5 -1.32 5 -2 5 C-2.2236337 6.41433206 -2.42826476 7.83167618 -2.625 9.25 C-2.74101562 10.03890625 -2.85703125 10.8278125 -2.9765625 11.640625 C-3.00338461 14.34071705 -2.26836029 15.66146072 -1 18 C-1.375 20.25 -1.375 20.25 -2 22 C-2.556875 21.773125 -3.11375 21.54625 -3.6875 21.3125 C-6.92123084 20.87550935 -8.39073978 22.18801373 -11 24 C-9.14752113 16.18430341 -5.83873529 5.83873529 0 0 Z " fill="#B3B1B1" transform="translate(20,73)"/>
<path d="M0 0 C0.721875 0.350625 1.44375 0.70125 2.1875 1.0625 C5.3122705 2.10409017 6.88161996 1.89096572 10 1 C10.144375 1.61875 10.28875 2.2375 10.4375 2.875 C10.93152225 5.03258322 10.93152225 5.03258322 12 7 C12.99 6.67 13.98 6.34 15 6 C17.1875 6.9375 17.1875 6.9375 19 8 C18.67 8.66 18.34 9.32 18 10 C18 10.66 18 11.32 18 12 C18.99 11.34 19.98 10.68 21 10 C20.67 11.65 20.34 13.3 20 15 C15.68711193 13.52769684 12.28218566 11.23423235 8.6875 8.5 C7.86282227 7.89478516 7.86282227 7.89478516 7.02148438 7.27734375 C5.63992549 6.23731309 4.31443702 5.12366546 3 4 C3 3.34 3 2.68 3 2 C2.01 1.67 1.02 1.34 0 1 C0 0.67 0 0.34 0 0 Z " fill="#CCC8C7" transform="translate(46,257)"/>
<path d="M0 0 C0.66 1.65 1.32 3.3 2 5 C1.34 5 0.68 5 0 5 C-0.061875 5.5775 -0.12375 6.155 -0.1875 6.75 C-1.32027301 9.88690987 -3.34197595 11.09167504 -6 13 C-8 10 -8 10 -8 8 C-9.32 7.67 -10.64 7.34 -12 7 C-10.56967163 5.82455195 -9.13046758 4.65989738 -7.6875 3.5 C-6.88699219 2.8503125 -6.08648437 2.200625 -5.26171875 1.53125 C-3 0 -3 0 0 0 Z " fill="#A09E9E" transform="translate(254,255)"/>
<path d="M0 0 C4.8274799 1.41292095 8.7162359 3.42974154 13 6 C10.13822943 7.43088528 8.06624227 6.59991697 5 6 C4.01 7.485 4.01 7.485 3 9 C-1.23429756 7.68938409 -5.07407404 6.05643741 -9 4 C-8.01 3.34 -7.02 2.68 -6 2 C-5.34 2.33 -4.68 2.66 -4 3 C-3.01 2.67 -2.02 2.34 -1 2 C-0.67 1.34 -0.34 0.68 0 0 Z " fill="#D7D5D4" transform="translate(217,13)"/>
<path d="M0 0 C0.33 0.66 0.66 1.32 1 2 C1.66 2.33 2.32 2.66 3 3 C1.35 7.95 -0.3 12.9 -2 18 C-2.66 16.68 -3.32 15.36 -4 14 C-4.66 13.67 -5.32 13.34 -6 13 C-5.80743982 4.80743982 -5.80743982 4.80743982 -2.4375 1.4375 C-1.2309375 0.7259375 -1.2309375 0.7259375 0 0 Z " fill="#CBCACA" transform="translate(14,93)"/>
<path d="M0 0 C-0.75 1.9375 -0.75 1.9375 -2 4 C-3.32594105 4.36162029 -4.65938457 4.69728039 -6 5 C-6.33 5.99 -6.66 6.98 -7 8 C-9.31 8.33 -11.62 8.66 -14 9 C-14 7.68 -14 6.36 -14 5 C-16.64 4.67 -19.28 4.34 -22 4 C-22 3.67 -22 3.34 -22 3 C-21.35933594 2.95101563 -20.71867188 2.90203125 -20.05859375 2.8515625 C-13.30022029 2.26738119 -6.71734023 -0.40711153 0 0 Z " fill="#DCDAD8" transform="translate(194,287)"/>
<path d="M0 0 C2.31 0.66 4.62 1.32 7 2 C7 2.99 7 3.98 7 5 C8.97536745 4.65213292 8.97536745 4.65213292 11 4 C11.33 3.34 11.66 2.68 12 2 C12.66 3.32 13.32 4.64 14 6 C13.01 6.66 12.02 7.32 11 8 C11.66 10.31 12.32 12.62 13 15 C11 13.625 11 13.625 9 12 C9 11.34 9 10.68 9 10 C8.34 10 7.68 10 7 10 C5.2734375 8.06640625 5.2734375 8.06640625 3.375 5.5625 C2.74335938 4.73878906 2.11171875 3.91507813 1.4609375 3.06640625 C0 1 0 1 0 0 Z " fill="#B7B4B3" transform="translate(29,238)"/>
<path d="M0 0 C0.33 0 0.66 0 1 0 C1.01030746 0.54679413 1.02061493 1.09358826 1.03123474 1.6569519 C1.13919328 7.33441385 1.25379974 13.01171364 1.37231445 18.68896484 C1.41569752 20.80937313 1.45737007 22.92981712 1.49731445 25.05029297 C1.55493543 28.09353408 1.61865325 31.1365949 1.68359375 34.1796875 C1.70030624 35.13181122 1.71701874 36.08393494 1.73423767 37.06491089 C1.75418289 37.94567291 1.77412811 38.82643494 1.79467773 39.73388672 C1.81022202 40.51110077 1.8257663 41.28831482 1.84178162 42.08908081 C1.88783251 44.08556935 1.88783251 44.08556935 3 46 C2.34 46 1.68 46 1 46 C1 47.32 1 48.64 1 50 C1.99 50.33 2.98 50.66 4 51 C2.68 51.99 1.36 52.98 0 54 C0 36.18 0 18.36 0 0 Z " fill="#E1E1E1" transform="translate(98,93)"/>
<path d="M0 0 C1.8125 0 1.8125 0 4 1 C5.8456968 2.89828075 7.38401815 4.89024592 9 7 C8.0409375 7.37125 8.0409375 7.37125 7.0625 7.75 C4.81258459 8.81562433 4.81258459 8.81562433 4.25 11.125 C4.1675 11.74375 4.085 12.3625 4 13 C1.20448001 10.93374609 0.98932074 9.93117808 0.4375 6.375 C0.293125 5.26125 0.14875 4.1475 0 3 C-0.66 2.67 -1.32 2.34 -2 2 C-1.34 1.34 -0.68 0.68 0 0 Z " fill="#DFDCDB" transform="translate(41,244)"/>
<path d="M0 0 C1.96354419 2.94531629 2.44929706 4.48434845 3.0625 7.875 C3.21847656 8.71804687 3.37445313 9.56109375 3.53515625 10.4296875 C3.68855469 11.27789062 3.84195312 12.12609375 4 13 C4.52385031 15.78011897 5.10332932 18.30998797 6 21 C5.979375 21.86625 5.95875 22.7325 5.9375 23.625 C6.01712994 27.92501668 6.96500418 31.84153466 8 36 C1.33363406 29.33363406 -0.09609403 13.09131515 -0.125 3.8125 C-0.08375 2.554375 -0.0425 1.29625 0 0 Z " fill="#877F7F" transform="translate(0,163)"/>
<path d="M0 0 C0.33 0.66 0.66 1.32 1 2 C0.0625 4.625 0.0625 4.625 -1 7 C-0.01 7 0.98 7 2 7 C2.66 7.33 3.32 7.66 4 8 C1.03 12.95 1.03 12.95 -2 18 C-2.66 16.68 -3.32 15.36 -4 14 C-3.34 13.01 -2.68 12.02 -2 11 C-3.65 11.66 -5.3 12.32 -7 13 C-6.36610765 9.50155614 -4.94822306 7.15913124 -2.9375 4.25 C-2.38964844 3.45078125 -1.84179688 2.6515625 -1.27734375 1.828125 C-0.85582031 1.22484375 -0.43429688 0.6215625 0 0 Z " fill="#C5C4C3" transform="translate(28,61)"/>
<path d="M0 0 C-0.33 1.65 -0.66 3.3 -1 5 C-2.65 5 -4.3 5 -6 5 C-6 5.66 -6 6.32 -6 7 C-7.65 6.67 -9.3 6.34 -11 6 C-9.66576819 0.42048518 -9.66576819 0.42048518 -6.625 -1.5 C-3.58975137 -2.0781426 -2.52725028 -1.68483352 0 0 Z " fill="#B0AFAE" transform="translate(248,264)"/>
<path d="M0 0 C5.75 1.625 5.75 1.625 8 5 C7.125 8.6875 7.125 8.6875 6 12 C4.85073734 11.04578192 3.70569459 10.08647955 2.5625 9.125 C1.92441406 8.59132813 1.28632813 8.05765625 0.62890625 7.5078125 C-1 6 -1 6 -2 4 C-1.34 3.67 -0.68 3.34 0 3 C0 2.01 0 1.02 0 0 Z " fill="#DAD8D7" transform="translate(256,41)"/>
<path d="M0 0 C0.66 0 1.32 0 2 0 C6 6.625 6 6.625 6 10 C4.68 10.33 3.36 10.66 2 11 C1.34 14.96 0.68 18.92 0 23 C-0.33 23 -0.66 23 -1 23 C-0.67 15.41 -0.34 7.82 0 0 Z " fill="#313131" transform="translate(278,76)"/>
<path d="M0 0 C0.66 0.33 1.32 0.66 2 1 C2.680625 1.226875 3.36125 1.45375 4.0625 1.6875 C6 3 6 3 6.875 6 C6.936875 7.485 6.936875 7.485 7 9 C6.34 9.66 5.68 10.32 5 11 C4.01 11 3.02 11 2 11 C0 8 0 8 0 5 C-0.66 4.67 -1.32 4.34 -2 4 C-1.34 2.68 -0.68 1.36 0 0 Z " fill="#DAD8D7" transform="translate(280,71)"/>
<path d="M0 0 C0.66 0.33 1.32 0.66 2 1 C-0.48982191 3.56095968 -2.95230006 5.96205687 -5.75 8.1875 C-8.07487388 9.80309077 -8.07487388 9.80309077 -9 12 C-9.66 12 -10.32 12 -11 12 C-11.33 13.32 -11.66 14.64 -12 16 C-13.32 16.33 -14.64 16.66 -16 17 C-16.33 16.01 -16.66 15.02 -17 14 C-12.25 10 -12.25 10 -10 10 C-10 9.34 -10 8.68 -10 8 C-8.06640625 6.30859375 -8.06640625 6.30859375 -5.5625 4.4375 C-2.67307373 2.34532911 -2.67307373 2.34532911 0 0 Z " fill="#C5C5C5" transform="translate(67,182)"/>
<path d="M0 0 C0 3 0 3 -2.23046875 5.5234375 C-3.20865735 6.48166307 -4.19470881 7.43191209 -5.1875 8.375 C-5.91163086 9.07882813 -5.91163086 9.07882813 -6.65039062 9.796875 C-7.61966594 10.73882846 -8.59192029 11.67772623 -9.56713867 12.61352539 C-10.95845955 13.95980436 -12.32348026 15.33309857 -13.6875 16.70703125 C-16.00121353 19.00120328 -18.42190897 21.01118692 -21 23 C-21.66 22.67 -22.32 22.34 -23 22 C-21.71034824 20.62437146 -20.37310707 19.29233607 -19 18 C-18.34 18 -17.68 18 -17 18 C-16.67 17.01 -16.34 16.02 -16 15 C-15.34 15 -14.68 15 -14 15 C-14 14.34 -14 13.68 -14 13 C-12.4609375 11.484375 -12.4609375 11.484375 -10.375 9.75 C-6.72639996 6.65323448 -3.34103014 3.42455589 0 0 Z " fill="#292929" transform="translate(227,140)"/>
<path d="M0 0 C0.625 1.875 0.625 1.875 1 4 C0.34 4.66 -0.32 5.32 -1 6 C-1 6.99 -1 7.98 -1 9 C-0.34 9 0.32 9 1 9 C1 8.34 1 7.68 1 7 C1.99 7.33 2.98 7.66 4 8 C2.6875 10 2.6875 10 1 12 C0.01 12 -0.98 12 -2 12 C-2.33 12.66 -2.66 13.32 -3 14 C-3.99 13.67 -4.98 13.34 -6 13 C-5.57476184 11.39253944 -5.13429874 9.78910164 -4.6875 8.1875 C-4.44386719 7.29417969 -4.20023438 6.40085937 -3.94921875 5.48046875 C-2.9799181 2.94752262 -2.04990396 1.7283504 0 0 Z " fill="#D3D1D1" transform="translate(32,56)"/>
<path d="M0 0 C1.37562854 1.28965176 2.70766393 2.62689293 4 4 C4 4.66 4 5.32 4 6 C4.99 6 5.98 6 7 6 C7.33 5.34 7.66 4.68 8 4 C9.16768356 8.37881334 8.77876573 11.52209706 8 16 C4.27992944 11.88135045 0 5.79263039 0 0 Z " fill="#A29FA0" transform="translate(10,205)"/>
<path d="M0 0 C0.66 0.33 1.32 0.66 2 1 C1.505 1.4125 1.01 1.825 0.5 2.25 C-1.43386092 4.12202338 -1.43386092 4.12202338 -1 8 C-0.34 8.66 0.32 9.32 1 10 C-0.32 10.99 -1.64 11.98 -3 13 C-3.61875 12.360625 -4.2375 11.72125 -4.875 11.0625 C-6.82597612 8.96116416 -6.82597612 8.96116416 -9 8 C-6.03 5.36 -3.06 2.72 0 0 Z " fill="#D4D2D2" transform="translate(57,31)"/>
<path d="M0 0 C6.625 -0.125 6.625 -0.125 10 1 C9.67 2.32 9.34 3.64 9 5 C5.25 6.125 5.25 6.125 3 5 C1.33805547 4.64386903 -0.328451 4.30791692 -2 4 C-1.34 3.67 -0.68 3.34 0 3 C0 2.01 0 1.02 0 0 Z " fill="#ECEBEB" transform="translate(207,11)"/>
<path d="M0 0 C2.8125 -0.25 2.8125 -0.25 6 0 C7.875 2 7.875 2 9 4 C7.68 3.67 6.36 3.34 5 3 C5.33 4.32 5.66 5.64 6 7 C1.44615385 7.36923077 1.44615385 7.36923077 -0.8125 5.5 C-1.204375 5.005 -1.59625 4.51 -2 4 C-1.34 2.68 -0.68 1.36 0 0 Z " fill="#CAC7C5" transform="translate(251,38)"/>
<path d="M0 0 C0.66 0 1.32 0 2 0 C1.67 2.31 1.34 4.62 1 7 C0.34 7 -0.32 7 -1 7 C-1 8.65 -1 10.3 -1 12 C-5.875 8.375 -5.875 8.375 -7 5 C-6.01 4.67 -5.02 4.34 -4 4 C-3.319375 3.319375 -2.63875 2.63875 -1.9375 1.9375 C-1.298125 1.298125 -0.65875 0.65875 0 0 Z " fill="#131313" transform="translate(160,172)"/>
<path d="M0 0 C0 3.52232517 -0.56731481 4.05751328 -2.8125 6.625 C-3.59560547 7.54152344 -3.59560547 7.54152344 -4.39453125 8.4765625 C-6 10 -6 10 -9 11 C-9.73323796 13.01508358 -9.73323796 13.01508358 -10 15 C-10.66 15 -11.32 15 -12 15 C-13.62514468 16.45833358 -13.62514468 16.45833358 -15 18 C-15.99 17.67 -16.98 17.34 -18 17 C-17.01 16.67 -16.02 16.34 -15 16 C-15 15.34 -15 14.68 -15 14 C-13.49609375 12.51953125 -13.49609375 12.51953125 -11.4375 10.8125 C-7.41324753 7.39798275 -3.67809995 3.78154651 0 0 Z " fill="#242424" transform="translate(256,112)"/>
<path d="M0 0 C0.33 0 0.66 0 1 0 C1.19959274 6.75288769 1.22169504 12.59629078 -1 19 C-1.35371498 20.66246041 -1.69595322 22.32774271 -2 24 C-2.33 24 -2.66 24 -3 24 C-3.45636453 15.5657073 -2.17423358 8.14043404 0 0 Z " fill="#8A8582" transform="translate(3,113)"/>
<path d="M0 0 C0.721875 0.350625 1.44375 0.70125 2.1875 1.0625 C5.3122705 2.10409017 6.88161996 1.89096572 10 1 C10.99435406 4.09354597 10.87840996 5.90279155 10 9 C8.82780457 8.21654285 7.66236332 7.42297164 6.5 6.625 C5.8503125 6.18414062 5.200625 5.74328125 4.53125 5.2890625 C4.0259375 4.86367188 3.520625 4.43828125 3 4 C3 3.34 3 2.68 3 2 C2.01 1.67 1.02 1.34 0 1 C0 0.67 0 0.34 0 0 Z " fill="#AFABA9" transform="translate(46,257)"/>
<path d="M0 0 C0.66 0.33 1.32 0.66 2 1 C1.67 1.99 1.34 2.98 1 4 C0.855625 4.70125 0.71125 5.4025 0.5625 6.125 C0.376875 6.74375 0.19125 7.3625 0 8 C-2.52935589 9.26467795 -3.34190903 8.7249339 -6 8 C-6.99 8 -7.98 8 -9 8 C-7.68 7.34 -6.36 6.68 -5 6 C-5 5.34 -5 4.68 -5 4 C-3.37373596 2.61767557 -1.7074998 1.28062485 0 0 Z " fill="#1E1E1E" transform="translate(82,190)"/>
<path d="M0 0 C-0.66 1.65 -1.32 3.3 -2 5 C-5.93673644 3.68775452 -8.22719294 2.08089673 -11 -1 C-6.70700357 -2.26264601 -4.12168689 -1.62950412 0 0 Z " fill="#C6C2C1" transform="translate(77,273)"/>
<path d="M0 0 C0.66 0.66 1.32 1.32 2 2 C1.505 2.391875 1.01 2.78375 0.5 3.1875 C-1.45593143 5.55091715 -1.24207973 7.01435003 -1 10 C-2.32 9.67 -3.64 9.34 -5 9 C-5.33 7.68 -5.66 6.36 -6 5 C-2.25 2 -2.25 2 0 2 C0 1.34 0 0.68 0 0 Z " fill="#DDDBDB" transform="translate(26,70)"/>
<path d="M0 0 C0.66 0.66 1.32 1.32 2 2 C1.67 2.99 1.34 3.98 1 5 C0.34 5 -0.32 5 -1 5 C-1.103125 5.639375 -1.20625 6.27875 -1.3125 6.9375 C-1.539375 7.618125 -1.76625 8.29875 -2 9 C-2.99 9.33 -3.98 9.66 -5 10 C-5 9.34 -5 8.68 -5 8 C-5.66 8 -6.32 8 -7 8 C-7 7.34 -7 6.68 -7 6 C-6.34 6 -5.68 6 -5 6 C-4.67 5.01 -4.34 4.02 -4 3 C-3.34 3 -2.68 3 -2 3 C-2 2.34 -2 1.68 -2 1 C-1.34 0.67 -0.68 0.34 0 0 Z " fill="#C2BEBF" transform="translate(47,40)"/>
<path d="M0 0 C0.99 0 1.98 0 3 0 C1.4169423 4.2742558 -1.50568404 6.26531794 -5 9 C-5.33 7.68 -5.66 6.36 -6 5 C-5.34 5 -4.68 5 -4 5 C-4.33 4.01 -4.66 3.02 -5 2 C-4.360625 1.855625 -3.72125 1.71125 -3.0625 1.5625 C-1.02454854 1.18992819 -1.02454854 1.18992819 0 0 Z " fill="#7F7A79" transform="translate(269,244)"/>
<path d="M0 0 C1.8125 1.5625 1.8125 1.5625 3 3 C2.01 3 1.02 3 0 3 C-0.33 3.66 -0.66 4.32 -1 5 C-1.99 5 -2.98 5 -4 5 C-4 4.01 -4 3.02 -4 2 C-4.99 2.66 -5.98 3.32 -7 4 C-7 2.68 -7 1.36 -7 0 C-4.26634878 -1.36682561 -2.89333621 -0.84683011 0 0 Z " fill="#ECEAE9" transform="translate(70,266)"/>
<path d="M0 0 C2.78211944 0.37596209 4.5879284 0.67318459 6.8125 2.4375 C8 4 8 4 8 6 C6.68 6.33 5.36 6.66 4 7 C4 6.34 4 5.68 4 5 C3.01 5.33 2.02 5.66 1 6 C0.67 4.02 0.34 2.04 0 0 Z " fill="#EBEBEB" transform="translate(109,152)"/>
<path d="M0 0 C0.66 0.33 1.32 0.66 2 1 C-0.84274704 4.00067743 -3.22459869 6.30757873 -7 8 C-7.66 8.66 -8.32 9.32 -9 10 C-9.99 9.67 -10.98 9.34 -12 9 C-8.04 6.03 -4.08 3.06 0 0 Z " fill="#3E3E3E" transform="translate(73,29)"/>
<path d="M0 0 C1.98 0.66 3.96 1.32 6 2 C6 1.34 6 0.68 6 0 C6.99 0.33 7.98 0.66 9 1 C7.71283353 2.00578589 6.42011342 3.00446798 5.125 4 C4.04605469 4.8353125 4.04605469 4.8353125 2.9453125 5.6875 C1 7 1 7 -1 7 C-1.04254356 5.00045254 -1.04080783 2.99958364 -1 1 C-0.67 0.67 -0.34 0.34 0 0 Z " fill="#9A9494" transform="translate(236,269)"/>
<path d="M0 0 C2.475 0.495 2.475 0.495 5 1 C5 2.98 5 4.96 5 7 C4.01 7 3.02 7 2 7 C0 5 0 5 -0.125 2.375 C-0.08375 1.59125 -0.0425 0.8075 0 0 Z " fill="#C9C9C9" transform="translate(142,160)"/>
<path d="M0 0 C0.66 0.33 1.32 0.66 2 1 C1.2884375 1.928125 1.2884375 1.928125 0.5625 2.875 C-1.02417441 4.90705546 -1.02417441 4.90705546 -2 7 C-2.61875 7.144375 -3.2375 7.28875 -3.875 7.4375 C-6.36710392 8.09717457 -7.3329446 9.08288629 -9 11 C-9.99 10.67 -10.98 10.34 -12 10 C-6.25 5 -6.25 5 -4 5 C-4 4.34 -4 3.68 -4 3 C-2 1.375 -2 1.375 0 0 Z " fill="#AAAAAA" transform="translate(36,207)"/>
<path d="M0 0 C0.99 0.33 1.98 0.66 3 1 C3.08912219 4.83225427 2.87867729 8.26562152 2 12 C-0.37555161 9.62444839 -0.36834858 8.69703006 -0.6875 5.4375 C-0.77386719 4.63183594 -0.86023438 3.82617188 -0.94921875 2.99609375 C-0.96597656 2.33738281 -0.98273437 1.67867187 -1 1 C-0.67 0.67 -0.34 0.34 0 0 Z " fill="#B9B3B6" transform="translate(8,192)"/>
<path d="M0 0 C1.32 0 2.64 0 4 0 C2.74194623 4.50802601 1.09592835 7.4912812 -2 11 C-1.67 9.02 -1.34 7.04 -1 5 C-1.66 4.67 -2.32 4.34 -3 4 C-2.34 3.67 -1.68 3.34 -1 3 C-0.34 3.33 0.32 3.66 1 4 C1 3.34 1 2.68 1 2 C0.34 1.67 -0.32 1.34 -1 1 C-0.67 0.67 -0.34 0.34 0 0 Z " fill="#7F7C7B" transform="translate(288,214)"/>
<path d="M0 0 C0.33 0 0.66 0 1 0 C1.06058594 0.62648437 1.12117188 1.25296875 1.18359375 1.8984375 C1.26738281 2.71570313 1.35117188 3.53296875 1.4375 4.375 C1.51871094 5.18710938 1.59992188 5.99921875 1.68359375 6.8359375 C1.89090114 9.04272805 1.89090114 9.04272805 3 11 C2.34 11 1.68 11 1 11 C1 12.32 1 13.64 1 15 C1.99 15.33 2.98 15.66 4 16 C2.68 16.99 1.36 17.98 0 19 C0 12.73 0 6.46 0 0 Z " fill="#D6D6D6" transform="translate(98,128)"/>
<path d="M0 0 C3.93673644 1.31224548 6.22719294 2.91910327 9 6 C7.68 6.33 6.36 6.66 5 7 C4.67 6.01 4.34 5.02 4 4 C3.34 4.66 2.68 5.32 2 6 C0 3 0 3 0 0 Z " fill="#C3C0C0" transform="translate(234,22)"/>
<path d="M0 0 C-0.99 0.495 -0.99 0.495 -2 1 C-1.67 1.99 -1.34 2.98 -1 4 C-3.3125 4.6875 -3.3125 4.6875 -6 5 C-7.8125 3.5625 -7.8125 3.5625 -9 2 C-5.86501708 0.14223235 -3.62528568 -0.20140476 0 0 Z " fill="#BBBBBB" transform="translate(219,278)"/>
<path d="M0 0 C1.67542976 0.28604898 3.34385343 0.61781233 5 1 C5 1.66 5 2.32 5 3 C3.03533587 4.06775224 1.03144641 5.06553465 -1 6 C-1.66 5.67 -2.32 5.34 -3 5 C-1.125 1.125 -1.125 1.125 0 0 Z " fill="#A8A6A6" transform="translate(267,241)"/>
<path d="M0 0 C1.32 1.32 2.64 2.64 4 4 C2.35 3.67 0.7 3.34 -1 3 C-0.67 2.01 -0.34 1.02 0 0 Z M-2 4 C-1.34 4.33 -0.68 4.66 0 5 C0 6.65 0 8.3 0 10 C-1.32 8.68 -2.64 7.36 -4 6 C-3.34 6 -2.68 6 -2 6 C-2 5.34 -2 4.68 -2 4 Z " fill="#B4B3B1" transform="translate(46,247)"/>
<path d="M0 0 C0 0.99 0 1.98 0 3 C-0.7425 3.680625 -0.7425 3.680625 -1.5 4.375 C-3.27889899 5.96224523 -3.27889899 5.96224523 -3.1875 8.6875 C-3.125625 9.450625 -3.06375 10.21375 -3 11 C-4.32 10.34 -5.64 9.68 -7 9 C-5.03681826 5.46627288 -2.95929119 2.75520215 0 0 Z " fill="#9F9E9E" transform="translate(268,238)"/>
<path d="M0 0 C0.66 0.33 1.32 0.66 2 1 C-1.3 3.97 -4.6 6.94 -8 10 C-8.66 9.34 -9.32 8.68 -10 8 C-6.7 5.36 -3.4 2.72 0 0 Z " fill="#313131" transform="translate(65,204)"/>
<path d="M0 0 C0.33 0.99 0.66 1.98 1 3 C-0.40445835 5.2636564 -2.1967913 7.0208685 -4 9 C-4.99 8.34 -5.98 7.68 -7 7 C-5.71034824 5.62437146 -4.37310707 4.29233607 -3 3 C-2.34 3 -1.68 3 -1 3 C-0.67 2.01 -0.34 1.02 0 0 Z " fill="#2B2B2B" transform="translate(219,113)"/>
<path d="M0 0 C-0.33 0.66 -0.66 1.32 -1 2 C-3.32156597 2.40729228 -5.6568787 2.74438677 -8 3 C-8.33 2.01 -8.66 1.02 -9 0 C-5.67465243 -1.10844919 -3.37817425 -0.84454356 0 0 Z " fill="#101010" transform="translate(271,73)"/>
<path d="M0 0 C4.75 0.75 4.75 0.75 7 3 C6.01 3 5.02 3 4 3 C4 3.66 4 4.32 4 5 C2.35 4.67 0.7 4.34 -1 4 C-0.67 2.68 -0.34 1.36 0 0 Z " fill="#BEBBBA" transform="translate(238,266)"/>
<path d="M0 0 C0.99 0.33 1.98 0.66 3 1 C1.02 1.99 1.02 1.99 -1 3 C-1 3.66 -1 4.32 -1 5 C-1.66 5 -2.32 5 -3 5 C-3 5.66 -3 6.32 -3 7 C-3.99 7.33 -4.98 7.66 -6 8 C-6 7.34 -6 6.68 -6 6 C-5.34 6 -4.68 6 -4 6 C-3.896875 5.38125 -3.79375 4.7625 -3.6875 4.125 C-3 2 -3 2 0 0 Z " fill="#B8B8B8" transform="translate(166,162)"/>
<path d="M0 0 C-0.33 0.99 -0.66 1.98 -1 3 C-2.98 3.33 -4.96 3.66 -7 4 C-6.625 2.0625 -6.625 2.0625 -6 0 C-3.50907189 -1.24546405 -2.58919267 -0.7767578 0 0 Z " fill="#ECECEC" transform="translate(271,76)"/>
<path d="M0 0 C1.32 0 2.64 0 4 0 C3.67 1.65 3.34 3.3 3 5 C1.35 4.67 -0.3 4.34 -2 4 C-1.34 2.68 -0.68 1.36 0 0 Z " fill="#DDDBDA" transform="translate(251,38)"/>
<path d="M0 0 C0.99 0.99 1.98 1.98 3 3 C0.03 5.475 0.03 5.475 -3 8 C-2.45276317 4.62537285 -1.9451 2.91765 0 0 Z " fill="#BBBBBB" transform="translate(173,153)"/>
<path d="M0 0 C0 0.66 0 1.32 0 2 C-3.07115285 4.95303159 -5.8333396 5.52651586 -10 6 C-4.4 0 -4.4 0 0 0 Z " fill="#B7B3B4" transform="translate(76,20)"/>
<path d="M0 0 C2.31 0.66 4.62 1.32 7 2 C6.01 2.495 6.01 2.495 5 3 C5.33 4.32 5.66 5.64 6 7 C1.125 2.25 1.125 2.25 0 0 Z " fill="#A4A2A2" transform="translate(29,238)"/>
<path d="M0 0 C0.66 0.33 1.32 0.66 2 1 C1.34 1.66 0.68 2.32 0 3 C0 4.32 0 5.64 0 7 C-0.99 7.33 -1.98 7.66 -3 8 C-3.75 6.25 -3.75 6.25 -4 4 C-2.0625 1.75 -2.0625 1.75 0 0 Z " fill="#1D1D1D" transform="translate(71,199)"/>
<path d="M0 0 C2.88437779 1.29299694 4.87219421 2.65941363 7 5 C4 6 4 6 1.8125 5.0625 C1.214375 4.711875 0.61625 4.36125 0 4 C0 2.68 0 1.36 0 0 Z " fill="#212121" transform="translate(141,165)"/>
<path d="M0 0 C0.66 0.66 1.32 1.32 2 2 C0.37660195 3.70884005 -1.29319053 5.37446717 -3 7 C-3.66 7 -4.32 7 -5 7 C-5 6.34 -5 5.68 -5 5 C-4.34 5 -3.68 5 -3 5 C-2.87625 4.360625 -2.7525 3.72125 -2.625 3.0625 C-2.41875 2.381875 -2.2125 1.70125 -2 1 C-1.34 0.67 -0.68 0.34 0 0 Z " fill="#EBEBEB" transform="translate(240,124)"/>
<path d="M0 0 C3.68802044 1.22934015 4.72356973 2.93859378 7 6 C4.69 5.34 2.38 4.68 0 4 C0 2.68 0 1.36 0 0 Z " fill="#D1CFCE" transform="translate(29,234)"/>
<path d="M0 0 C0.66 0.33 1.32 0.66 2 1 C1.67 2.65 1.34 4.3 1 6 C-0.32 5.67 -1.64 5.34 -3 5 C-2.34 4.67 -1.68 4.34 -1 4 C-1.33 3.01 -1.66 2.02 -2 1 C-1.34 0.67 -0.68 0.34 0 0 Z " fill="#0E0E0E" transform="translate(56,186)"/>
<path d="M0 0 C1.32 0 2.64 0 4 0 C3.34 1.32 2.68 2.64 2 4 C0.35 4 -1.3 4 -3 4 C-1.75 2 -1.75 2 0 0 Z " fill="#D8D8D8" transform="translate(183,160)"/>
<path d="M0 0 C2.125 0.9375 2.125 0.9375 4 2 C2.35 3.32 0.7 4.64 -1 6 C-1.33 4.35 -1.66 2.7 -2 1 C-1.34 0.67 -0.68 0.34 0 0 Z " fill="#222222" transform="translate(215,125)"/>
<path d="M0 0 C1.32 0.33 2.64 0.66 4 1 C3.67 1.99 3.34 2.98 3 4 C1.35 4.33 -0.3 4.66 -2 5 C-1.34 3.35 -0.68 1.7 0 0 Z " fill="#F9F7F7" transform="translate(192,6)"/>
<path d="M0 0 C2.0625 0.25 2.0625 0.25 4 1 C4.33 1.66 4.66 2.32 5 3 C2.625 3.625 2.625 3.625 0 4 C-0.66 3.34 -1.32 2.68 -2 2 C-1.34 1.34 -0.68 0.68 0 0 Z " fill="#D5D5D4" transform="translate(41,244)"/>
<path d="M0 0 C2.475 0.495 2.475 0.495 5 1 C4.67 2.98 4.34 4.96 4 7 C0 2.25 0 2.25 0 0 Z " fill="#898687" transform="translate(14,214)"/>
<path d="M0 0 C2.97 1.98 2.97 1.98 6 4 C5.01 4.66 4.02 5.32 3 6 C2.01 5.34 1.02 4.68 0 4 C0 2.68 0 1.36 0 0 Z " fill="#232323" transform="translate(134,191)"/>
<path d="M0 0 C1.65 0 3.3 0 5 0 C5 1.66666667 5 3.33333333 5 5 C4.01 5 3.02 5 2 5 C1 3 1 3 0 0 Z " fill="#0D0D0D" transform="translate(62,178)"/>
<path d="M0 0 C1.65 0.33 3.3 0.66 5 1 C3.35 2.65 1.7 4.3 0 6 C-1.125 2.25 -1.125 2.25 0 0 Z " fill="#D0D0D0" transform="translate(77,158)"/>
<path d="M0 0 C0.66 0 1.32 0 2 0 C2.33 0.99 2.66 1.98 3 3 C1.66666667 4.33333333 0.33333333 5.66666667 -1 7 C-2 4 -2 4 -1.0625 1.8125 C-0.5365625 0.9153125 -0.5365625 0.9153125 0 0 Z " fill="#EDEDED" transform="translate(224,121)"/>
<path d="M0 0 C0.33 0.99 0.66 1.98 1 3 C-1.31 2.67 -3.62 2.34 -6 2 C-6 1.34 -6 0.68 -6 0 C-2.25 -1.125 -2.25 -1.125 0 0 Z " fill="#111111" transform="translate(218,123)"/>
<path d="M0 0 C0.66 0.33 1.32 0.66 2 1 C1.34 2.32 0.68 3.64 0 5 C-1.32 4.34 -2.64 3.68 -4 3 C-3 1 -3 1 0 0 Z " fill="#EDEDED" transform="translate(249,115)"/>
<path d="M0 0 C0.99 0.99 1.98 1.98 3 3 C2.72963853 5.97397616 2.14553974 6.85446026 0 9 C0 6.03 0 3.06 0 0 Z " fill="#131313" transform="translate(279,77)"/>
<path d="M0 0 C0.33 0.66 0.66 1.32 1 2 C-0.61594832 4.04119788 -2.2856382 6.04072937 -4 8 C-4.66 8 -5.32 8 -6 8 C-4.55746343 4.63408134 -2.66735273 2.48952921 0 0 Z " fill="#ABA6A6" transform="translate(39,48)"/>
</svg>
